M48
;Layer_Color=9474304
;FILE_FORMAT=4:4
METRIC,LZ
;TYPE=PLATED
T1F00S00C0.3000
T2F00S00C0.6000
T3F00S00C0.7000
T4F00S00C1.2000
T5F00S00C1.6000
%
T01
X0066445Y-00085251
X0066445Y-00079126
X0066445Y-00073001
X007136Y-00109001
X00713494Y-00119902
X00739054Y-00120053
X00739132Y-00109001
X00793425Y-00097251
X008052
X00764105Y-00030741
Y-00019533
X007644Y0002006
X007644Y0003094
X00713548Y00030807
X00713692Y0002042
X0071365Y-00020073
X007136Y-00030842
X007136Y00108501
X00713673Y00120458
X00739089
X00739Y00108501
X00793425Y0009725
X008052
X0066445Y00085251
X0066445Y00079126
X0066445Y00073001
X005645
X005645Y00066876
X005645Y00060751
Y-00060751
X005645Y-00066876
X005645Y-00073001
X002595Y-0006595
Y-00058225
Y-000505
Y000505
Y00058225
Y0006595
T02
X00013363Y-00130798
X00029202Y-00146636
X000515Y-001475
X00074162
X00096824
X00119487
X00142149
X00164811
X00187473
X00210135
X00232797
X00255459
X00278122
X00300784
X00323446
X00346108
X0036877
X00391432
X00414095
X00436757
X00459419
X00482081
X00504743
X00527405
X00550067
X0057273
X00595392
X00618054
X00640716
X00663378
X0068604
X00708703
X00731365
X00754027
X00776689
X00799351
X00822013
X00844676
X00867338
X0089
X00911696Y-00145056
X00932304Y-00137844
X0095079Y-00126229
X00966228Y-0011079
X00977844Y-00092304
X00985055Y-00071696
X009875Y-0005
Y-00027357
Y-00004714
Y00017929
Y00040571
Y00063214
Y00085857
Y001085
X00986636Y00130798
X00970797Y00146636
X009485Y001475
X00925838
X00903176
X00880513
X00857851
X00835189
X00812527
X00789865
X00767203
X0074454
X00721878
X00699216
X00676554
X00653892
X0063123
X00608568
X00585905
X00563243
X00540581
X00517919
X00495257
X00472594
X00449932
X0042727
X00404608
X00381946
X00359284
X00336622
X00313959
X00291297
X00268635
X00245973
X00223311
X00200649
X00177987
X00155324
X00132662
X0011
X00088304Y00145056
X00067696Y00137844
X0004921Y00126229
X00033771Y0011079
X00022155Y00092304
X00014944Y00071696
X000125Y0005
Y00027357
Y00004714
Y-00017929
Y-00040571
Y-00063214
Y-00085857
Y-001085
T03
X00396Y-00107501
X00446
X00478
X00528
Y-000425
X00478
X00446
X00396
Y00042499
X00446
X00478
X00528
Y001075
X00478
X00446
X00396
X002125
Y000575
Y-00057501
Y-00107501
T04
X008222Y000025
X00873
X0017145Y0
X0006985Y-0008255
T05
X008222Y-000356
Y000406
X0013335Y000381
X00127Y-000381
M30
