G04*
G04 #@! TF.GenerationSoftware,Altium Limited,Altium Designer,22.4.2 (48)*
G04*
G04 Layer_Color=65535*
%FSLAX44Y44*%
%MOMM*%
G71*
G04*
G04 #@! TF.SameCoordinates,4816D0BE-1F83-4A6B-9D26-C2E6DC4596A5*
G04*
G04*
G04 #@! TF.FilePolarity,Positive*
G04*
G01*
G75*
%ADD10C,0.2500*%
%ADD11C,0.1000*%
G36*
X194021Y-42513D02*
Y-32513D01*
X192021Y-34513D01*
Y-40513D01*
X194021Y-42513D01*
D02*
G37*
G36*
X231021Y-32513D02*
Y-42513D01*
X233021Y-40513D01*
Y-34513D01*
X231021Y-32513D01*
D02*
G37*
G36*
X231021Y-42513D02*
X194021D01*
Y-32513D01*
X231021D01*
Y-42513D01*
D02*
G37*
G36*
X120886Y-118083D02*
X118608D01*
Y-116732D01*
X118590Y-116769D01*
X118516Y-116861D01*
X118386Y-117009D01*
X118219Y-117176D01*
X118034Y-117361D01*
X117793Y-117565D01*
X117534Y-117750D01*
X117256Y-117917D01*
X117219Y-117935D01*
X117127Y-117972D01*
X116960Y-118028D01*
X116775Y-118102D01*
X116534Y-118176D01*
X116257Y-118231D01*
X115979Y-118268D01*
X115682Y-118287D01*
X115534D01*
X115423Y-118268D01*
X115275Y-118250D01*
X115127Y-118213D01*
X114942Y-118176D01*
X114738Y-118120D01*
X114534Y-118065D01*
X114312Y-117972D01*
X114090Y-117880D01*
X113849Y-117750D01*
X113627Y-117602D01*
X113386Y-117435D01*
X113164Y-117232D01*
X112942Y-117009D01*
X112923Y-116991D01*
X112886Y-116954D01*
X112831Y-116880D01*
X112775Y-116769D01*
X112683Y-116639D01*
X112590Y-116472D01*
X112479Y-116287D01*
X112387Y-116065D01*
X112275Y-115824D01*
X112164Y-115565D01*
X112072Y-115269D01*
X111998Y-114954D01*
X111924Y-114602D01*
X111868Y-114232D01*
X111831Y-113843D01*
X111812Y-113417D01*
Y-113399D01*
Y-113306D01*
Y-113195D01*
X111831Y-113028D01*
X111849Y-112825D01*
X111868Y-112603D01*
X111905Y-112343D01*
X111942Y-112084D01*
X112072Y-111491D01*
X112164Y-111195D01*
X112275Y-110899D01*
X112405Y-110603D01*
X112553Y-110325D01*
X112720Y-110066D01*
X112905Y-109825D01*
X112923Y-109806D01*
X112961Y-109769D01*
X113016Y-109714D01*
X113109Y-109621D01*
X113220Y-109529D01*
X113349Y-109436D01*
X113497Y-109325D01*
X113683Y-109195D01*
X113868Y-109084D01*
X114090Y-108973D01*
X114553Y-108770D01*
X114831Y-108695D01*
X115108Y-108640D01*
X115405Y-108603D01*
X115719Y-108584D01*
X115868D01*
X115979Y-108603D01*
X116108Y-108621D01*
X116275Y-108658D01*
X116442Y-108695D01*
X116645Y-108751D01*
X116849Y-108807D01*
X117071Y-108899D01*
X117293Y-109010D01*
X117516Y-109121D01*
X117756Y-109288D01*
X117978Y-109455D01*
X118201Y-109658D01*
X118423Y-109881D01*
Y-105270D01*
X120886D01*
Y-118083D01*
D02*
G37*
G36*
X164751Y-108603D02*
X164955Y-108621D01*
X165177Y-108658D01*
X165418Y-108714D01*
X165677Y-108788D01*
X165937Y-108881D01*
X165974Y-108899D01*
X166048Y-108936D01*
X166177Y-108992D01*
X166325Y-109084D01*
X166492Y-109195D01*
X166659Y-109325D01*
X166825Y-109473D01*
X166973Y-109640D01*
X166992Y-109658D01*
X167029Y-109714D01*
X167085Y-109806D01*
X167159Y-109936D01*
X167251Y-110084D01*
X167325Y-110269D01*
X167399Y-110455D01*
X167455Y-110677D01*
Y-110695D01*
X167473Y-110788D01*
X167510Y-110917D01*
X167529Y-111103D01*
X167566Y-111325D01*
X167584Y-111621D01*
X167603Y-111936D01*
Y-112325D01*
Y-118083D01*
X165140D01*
Y-113362D01*
Y-113343D01*
Y-113288D01*
Y-113214D01*
Y-113121D01*
Y-112991D01*
Y-112862D01*
X165122Y-112547D01*
X165103Y-112232D01*
X165066Y-111899D01*
X165029Y-111621D01*
X165011Y-111510D01*
X164974Y-111417D01*
Y-111399D01*
X164937Y-111343D01*
X164900Y-111269D01*
X164844Y-111158D01*
X164677Y-110936D01*
X164585Y-110825D01*
X164455Y-110732D01*
X164437Y-110714D01*
X164400Y-110695D01*
X164326Y-110658D01*
X164214Y-110603D01*
X164085Y-110547D01*
X163955Y-110510D01*
X163789Y-110492D01*
X163603Y-110473D01*
X163492D01*
X163381Y-110492D01*
X163233Y-110510D01*
X163048Y-110566D01*
X162863Y-110621D01*
X162659Y-110714D01*
X162455Y-110825D01*
X162437Y-110843D01*
X162381Y-110880D01*
X162289Y-110973D01*
X162178Y-111066D01*
X162067Y-111214D01*
X161956Y-111362D01*
X161844Y-111566D01*
X161770Y-111769D01*
Y-111788D01*
X161733Y-111880D01*
X161715Y-112029D01*
X161678Y-112251D01*
X161659Y-112380D01*
X161641Y-112547D01*
X161622Y-112714D01*
Y-112917D01*
X161604Y-113121D01*
X161585Y-113362D01*
Y-113621D01*
Y-113899D01*
Y-118083D01*
X159122D01*
Y-108788D01*
X161400D01*
Y-110158D01*
X161418Y-110140D01*
X161455Y-110084D01*
X161530Y-110010D01*
X161622Y-109918D01*
X161733Y-109788D01*
X161881Y-109658D01*
X162048Y-109510D01*
X162233Y-109362D01*
X162437Y-109232D01*
X162678Y-109084D01*
X162918Y-108955D01*
X163196Y-108825D01*
X163492Y-108733D01*
X163789Y-108658D01*
X164122Y-108603D01*
X164455Y-108584D01*
X164585D01*
X164751Y-108603D01*
D02*
G37*
G36*
X172547Y-118083D02*
X170084D01*
Y-105270D01*
X172547D01*
Y-118083D01*
D02*
G37*
G36*
X156623Y-118083D02*
X154160D01*
Y-115621D01*
X156623D01*
Y-118083D01*
D02*
G37*
G36*
X135643Y-112065D02*
X138513Y-108788D01*
X141532D01*
X138347Y-112195D01*
X141754Y-118083D01*
X139106D01*
X136754Y-113917D01*
X135643Y-115121D01*
Y-118083D01*
X133181D01*
Y-105270D01*
X135643D01*
Y-112065D01*
D02*
G37*
G36*
X127329Y-108603D02*
X127478D01*
X127848Y-108640D01*
X128237Y-108677D01*
X128644Y-108751D01*
X129033Y-108862D01*
X129200Y-108918D01*
X129366Y-108992D01*
X129385D01*
X129403Y-109010D01*
X129496Y-109066D01*
X129644Y-109140D01*
X129811Y-109251D01*
X130014Y-109399D01*
X130199Y-109566D01*
X130366Y-109769D01*
X130514Y-109973D01*
X130533Y-110010D01*
X130570Y-110084D01*
X130625Y-110251D01*
X130644Y-110343D01*
X130681Y-110473D01*
X130718Y-110603D01*
X130737Y-110769D01*
X130773Y-110955D01*
X130792Y-111158D01*
X130810Y-111380D01*
X130829Y-111621D01*
X130848Y-111880D01*
Y-112177D01*
X130810Y-115047D01*
Y-115065D01*
Y-115102D01*
Y-115158D01*
Y-115250D01*
Y-115472D01*
X130829Y-115732D01*
Y-116028D01*
X130866Y-116324D01*
X130885Y-116621D01*
X130922Y-116861D01*
Y-116880D01*
X130940Y-116954D01*
X130977Y-117084D01*
X131014Y-117232D01*
X131088Y-117417D01*
X131162Y-117620D01*
X131255Y-117843D01*
X131366Y-118083D01*
X128940D01*
Y-118065D01*
X128922Y-118046D01*
X128903Y-117972D01*
X128866Y-117898D01*
X128829Y-117806D01*
X128792Y-117676D01*
X128755Y-117528D01*
X128700Y-117361D01*
Y-117343D01*
X128681Y-117324D01*
X128663Y-117250D01*
X128626Y-117158D01*
X128607Y-117084D01*
X128570Y-117102D01*
X128496Y-117176D01*
X128366Y-117287D01*
X128200Y-117417D01*
X127996Y-117565D01*
X127774Y-117732D01*
X127515Y-117861D01*
X127255Y-117991D01*
X127218Y-118009D01*
X127126Y-118028D01*
X126978Y-118083D01*
X126792Y-118139D01*
X126570Y-118195D01*
X126311Y-118231D01*
X126015Y-118268D01*
X125718Y-118287D01*
X125589D01*
X125478Y-118268D01*
X125367D01*
X125218Y-118250D01*
X124904Y-118195D01*
X124533Y-118102D01*
X124163Y-117972D01*
X123793Y-117787D01*
X123459Y-117528D01*
Y-117509D01*
X123422Y-117491D01*
X123330Y-117380D01*
X123200Y-117213D01*
X123052Y-116991D01*
X122904Y-116713D01*
X122774Y-116380D01*
X122682Y-115991D01*
X122663Y-115787D01*
X122645Y-115565D01*
Y-115528D01*
Y-115435D01*
X122663Y-115287D01*
X122700Y-115102D01*
X122737Y-114880D01*
X122793Y-114658D01*
X122885Y-114417D01*
X123015Y-114176D01*
X123034Y-114139D01*
X123089Y-114065D01*
X123163Y-113954D01*
X123293Y-113825D01*
X123422Y-113676D01*
X123608Y-113510D01*
X123811Y-113362D01*
X124052Y-113232D01*
X124089Y-113214D01*
X124182Y-113176D01*
X124330Y-113121D01*
X124552Y-113028D01*
X124830Y-112936D01*
X125163Y-112843D01*
X125570Y-112751D01*
X126015Y-112658D01*
X126033D01*
X126089Y-112640D01*
X126181Y-112621D01*
X126292Y-112603D01*
X126441Y-112584D01*
X126607Y-112547D01*
X126978Y-112454D01*
X127366Y-112362D01*
X127774Y-112269D01*
X128126Y-112158D01*
X128292Y-112102D01*
X128422Y-112047D01*
Y-111806D01*
Y-111769D01*
Y-111695D01*
X128403Y-111566D01*
X128385Y-111399D01*
X128329Y-111232D01*
X128274Y-111066D01*
X128181Y-110918D01*
X128052Y-110788D01*
X128033Y-110769D01*
X127978Y-110732D01*
X127885Y-110695D01*
X127755Y-110621D01*
X127570Y-110566D01*
X127348Y-110529D01*
X127070Y-110492D01*
X126737Y-110473D01*
X126626D01*
X126515Y-110492D01*
X126367Y-110510D01*
X126200Y-110547D01*
X126015Y-110584D01*
X125848Y-110658D01*
X125700Y-110751D01*
X125681Y-110769D01*
X125644Y-110806D01*
X125570Y-110862D01*
X125496Y-110955D01*
X125385Y-111084D01*
X125293Y-111251D01*
X125200Y-111436D01*
X125107Y-111658D01*
X122904Y-111251D01*
Y-111232D01*
X122922Y-111195D01*
X122941Y-111121D01*
X122978Y-111029D01*
X123015Y-110918D01*
X123071Y-110788D01*
X123200Y-110492D01*
X123385Y-110177D01*
X123608Y-109844D01*
X123867Y-109529D01*
X124182Y-109251D01*
X124200D01*
X124219Y-109214D01*
X124274Y-109195D01*
X124348Y-109140D01*
X124459Y-109103D01*
X124570Y-109047D01*
X124719Y-108973D01*
X124867Y-108918D01*
X125052Y-108862D01*
X125256Y-108788D01*
X125478Y-108733D01*
X125737Y-108695D01*
X125996Y-108640D01*
X126292Y-108621D01*
X126589Y-108584D01*
X127200D01*
X127329Y-108603D01*
D02*
G37*
G36*
X95444Y-105288D02*
X95647D01*
X95851Y-105307D01*
X96092D01*
X96573Y-105363D01*
X97073Y-105418D01*
X97536Y-105511D01*
X97740Y-105566D01*
X97925Y-105622D01*
X97944D01*
X97962Y-105640D01*
X98073Y-105696D01*
X98240Y-105788D01*
X98462Y-105899D01*
X98703Y-106085D01*
X98944Y-106288D01*
X99184Y-106547D01*
X99406Y-106862D01*
Y-106881D01*
X99425Y-106899D01*
X99462Y-106955D01*
X99499Y-107010D01*
X99592Y-107196D01*
X99703Y-107436D01*
X99795Y-107733D01*
X99888Y-108066D01*
X99962Y-108455D01*
X99980Y-108862D01*
Y-108881D01*
Y-108918D01*
Y-109010D01*
X99962Y-109103D01*
Y-109232D01*
X99943Y-109362D01*
X99869Y-109695D01*
X99777Y-110084D01*
X99629Y-110473D01*
X99406Y-110880D01*
X99277Y-111066D01*
X99129Y-111251D01*
X99110Y-111269D01*
X99092Y-111288D01*
X99036Y-111343D01*
X98962Y-111399D01*
X98888Y-111473D01*
X98777Y-111566D01*
X98647Y-111658D01*
X98499Y-111751D01*
X98332Y-111862D01*
X98129Y-111954D01*
X97925Y-112047D01*
X97703Y-112140D01*
X97444Y-112232D01*
X97184Y-112306D01*
X96907Y-112380D01*
X96592Y-112436D01*
X96610D01*
X96629Y-112454D01*
X96740Y-112528D01*
X96888Y-112621D01*
X97073Y-112751D01*
X97296Y-112917D01*
X97518Y-113084D01*
X97758Y-113288D01*
X97962Y-113510D01*
X97981Y-113528D01*
X98073Y-113621D01*
X98184Y-113769D01*
X98351Y-113991D01*
X98573Y-114269D01*
X98684Y-114454D01*
X98814Y-114639D01*
X98962Y-114843D01*
X99110Y-115065D01*
X99277Y-115324D01*
X99443Y-115584D01*
X101017Y-118083D01*
X97907D01*
X96055Y-115306D01*
X96036Y-115287D01*
X96018Y-115232D01*
X95962Y-115158D01*
X95888Y-115065D01*
X95814Y-114954D01*
X95722Y-114806D01*
X95518Y-114510D01*
X95277Y-114176D01*
X95055Y-113880D01*
X94851Y-113602D01*
X94759Y-113510D01*
X94685Y-113417D01*
X94666Y-113399D01*
X94629Y-113362D01*
X94555Y-113288D01*
X94462Y-113195D01*
X94333Y-113121D01*
X94203Y-113028D01*
X94055Y-112954D01*
X93907Y-112880D01*
X93888D01*
X93833Y-112862D01*
X93740Y-112825D01*
X93592Y-112806D01*
X93407Y-112769D01*
X93185Y-112751D01*
X92926Y-112732D01*
X92092D01*
Y-118083D01*
X89500D01*
Y-105270D01*
X95277D01*
X95444Y-105288D01*
D02*
G37*
G36*
X147790Y-108603D02*
X147975Y-108621D01*
X148179Y-108658D01*
X148420Y-108695D01*
X148660Y-108751D01*
X148938Y-108825D01*
X149216Y-108918D01*
X149494Y-109029D01*
X149790Y-109158D01*
X150086Y-109325D01*
X150364Y-109510D01*
X150642Y-109714D01*
X150901Y-109955D01*
X150920Y-109973D01*
X150957Y-110010D01*
X151031Y-110103D01*
X151105Y-110195D01*
X151216Y-110343D01*
X151327Y-110492D01*
X151456Y-110695D01*
X151586Y-110899D01*
X151697Y-111140D01*
X151827Y-111399D01*
X151938Y-111695D01*
X152049Y-111991D01*
X152123Y-112325D01*
X152197Y-112658D01*
X152234Y-113028D01*
X152253Y-113417D01*
Y-113436D01*
Y-113510D01*
Y-113621D01*
X152234Y-113769D01*
X152216Y-113954D01*
X152179Y-114158D01*
X152142Y-114399D01*
X152086Y-114639D01*
X152012Y-114917D01*
X151919Y-115195D01*
X151808Y-115491D01*
X151679Y-115787D01*
X151512Y-116084D01*
X151327Y-116361D01*
X151123Y-116639D01*
X150883Y-116917D01*
X150864Y-116935D01*
X150827Y-116972D01*
X150753Y-117046D01*
X150642Y-117139D01*
X150512Y-117232D01*
X150345Y-117343D01*
X150160Y-117472D01*
X149957Y-117602D01*
X149716Y-117732D01*
X149457Y-117861D01*
X149179Y-117972D01*
X148864Y-118065D01*
X148549Y-118157D01*
X148198Y-118231D01*
X147846Y-118268D01*
X147457Y-118287D01*
X147327D01*
X147235Y-118268D01*
X147124D01*
X146994Y-118250D01*
X146679Y-118213D01*
X146290Y-118139D01*
X145883Y-118046D01*
X145457Y-117898D01*
X145013Y-117713D01*
X144994D01*
X144957Y-117695D01*
X144902Y-117657D01*
X144828Y-117602D01*
X144624Y-117472D01*
X144365Y-117287D01*
X144087Y-117046D01*
X143791Y-116750D01*
X143513Y-116417D01*
X143254Y-116028D01*
Y-116010D01*
X143235Y-115972D01*
X143198Y-115917D01*
X143161Y-115824D01*
X143124Y-115713D01*
X143069Y-115584D01*
X143013Y-115435D01*
X142957Y-115269D01*
X142902Y-115084D01*
X142846Y-114880D01*
X142754Y-114417D01*
X142680Y-113880D01*
X142661Y-113306D01*
Y-113288D01*
Y-113251D01*
Y-113176D01*
X142680Y-113102D01*
Y-112991D01*
X142698Y-112862D01*
X142735Y-112547D01*
X142809Y-112195D01*
X142920Y-111806D01*
X143050Y-111380D01*
X143254Y-110955D01*
Y-110936D01*
X143291Y-110899D01*
X143309Y-110843D01*
X143365Y-110769D01*
X143513Y-110566D01*
X143698Y-110306D01*
X143939Y-110029D01*
X144235Y-109732D01*
X144568Y-109455D01*
X144957Y-109195D01*
X144976D01*
X145013Y-109177D01*
X145068Y-109140D01*
X145161Y-109103D01*
X145253Y-109047D01*
X145383Y-109010D01*
X145531Y-108955D01*
X145679Y-108881D01*
X146050Y-108770D01*
X146476Y-108677D01*
X146938Y-108603D01*
X147438Y-108584D01*
X147642D01*
X147790Y-108603D01*
D02*
G37*
G36*
X106276D02*
X106443Y-108621D01*
X106646Y-108658D01*
X106869Y-108695D01*
X107109Y-108751D01*
X107368Y-108825D01*
X107628Y-108918D01*
X107906Y-109029D01*
X108183Y-109177D01*
X108442Y-109325D01*
X108702Y-109510D01*
X108961Y-109732D01*
X109183Y-109973D01*
X109202Y-109992D01*
X109239Y-110029D01*
X109294Y-110121D01*
X109368Y-110232D01*
X109461Y-110380D01*
X109553Y-110547D01*
X109665Y-110769D01*
X109776Y-111010D01*
X109887Y-111288D01*
X109998Y-111603D01*
X110091Y-111936D01*
X110183Y-112325D01*
X110257Y-112732D01*
X110313Y-113176D01*
X110350Y-113639D01*
Y-114158D01*
X104202D01*
Y-114176D01*
Y-114213D01*
Y-114269D01*
X104221Y-114343D01*
X104239Y-114528D01*
X104276Y-114787D01*
X104350Y-115047D01*
X104461Y-115343D01*
X104591Y-115621D01*
X104776Y-115861D01*
X104795Y-115880D01*
X104887Y-115954D01*
X104998Y-116047D01*
X105165Y-116158D01*
X105369Y-116269D01*
X105628Y-116361D01*
X105906Y-116435D01*
X106202Y-116454D01*
X106295D01*
X106406Y-116435D01*
X106535Y-116417D01*
X106683Y-116380D01*
X106850Y-116324D01*
X107017Y-116250D01*
X107165Y-116139D01*
X107183Y-116121D01*
X107239Y-116084D01*
X107313Y-116010D01*
X107387Y-115898D01*
X107498Y-115750D01*
X107591Y-115584D01*
X107683Y-115361D01*
X107776Y-115121D01*
X110220Y-115528D01*
Y-115547D01*
X110202Y-115584D01*
X110164Y-115658D01*
X110127Y-115750D01*
X110072Y-115861D01*
X110016Y-115991D01*
X109850Y-116287D01*
X109646Y-116621D01*
X109387Y-116972D01*
X109072Y-117287D01*
X108720Y-117583D01*
X108702D01*
X108683Y-117620D01*
X108609Y-117639D01*
X108535Y-117695D01*
X108442Y-117750D01*
X108313Y-117806D01*
X108183Y-117861D01*
X108017Y-117935D01*
X107646Y-118065D01*
X107220Y-118176D01*
X106720Y-118250D01*
X106184Y-118287D01*
X106072D01*
X105961Y-118268D01*
X105795D01*
X105591Y-118231D01*
X105350Y-118195D01*
X105091Y-118157D01*
X104832Y-118083D01*
X104536Y-118009D01*
X104239Y-117898D01*
X103943Y-117769D01*
X103647Y-117620D01*
X103350Y-117435D01*
X103073Y-117232D01*
X102832Y-116991D01*
X102591Y-116713D01*
X102573Y-116695D01*
X102554Y-116658D01*
X102517Y-116583D01*
X102443Y-116491D01*
X102388Y-116361D01*
X102313Y-116213D01*
X102221Y-116047D01*
X102147Y-115843D01*
X102054Y-115621D01*
X101980Y-115380D01*
X101888Y-115121D01*
X101832Y-114824D01*
X101777Y-114528D01*
X101721Y-114213D01*
X101702Y-113862D01*
X101684Y-113510D01*
Y-113491D01*
Y-113417D01*
Y-113288D01*
X101702Y-113121D01*
X101721Y-112936D01*
X101740Y-112714D01*
X101777Y-112473D01*
X101832Y-112195D01*
X101980Y-111621D01*
X102073Y-111325D01*
X102184Y-111010D01*
X102332Y-110714D01*
X102499Y-110436D01*
X102684Y-110158D01*
X102887Y-109899D01*
X102906Y-109881D01*
X102943Y-109844D01*
X103017Y-109769D01*
X103110Y-109695D01*
X103221Y-109603D01*
X103369Y-109492D01*
X103536Y-109362D01*
X103721Y-109232D01*
X103924Y-109121D01*
X104165Y-108992D01*
X104406Y-108881D01*
X104684Y-108788D01*
X104961Y-108714D01*
X105276Y-108640D01*
X105591Y-108603D01*
X105924Y-108584D01*
X106128D01*
X106276Y-108603D01*
D02*
G37*
G36*
X218623Y-80219D02*
X218776Y-80233D01*
X218942Y-80261D01*
X219122Y-80303D01*
X219316Y-80358D01*
X219510Y-80428D01*
X219538Y-80441D01*
X219594Y-80469D01*
X219691Y-80511D01*
X219802Y-80580D01*
X219926Y-80663D01*
X220051Y-80760D01*
X220176Y-80871D01*
X220287Y-80996D01*
X220301Y-81010D01*
X220329Y-81052D01*
X220370Y-81121D01*
X220426Y-81218D01*
X220495Y-81329D01*
X220551Y-81468D01*
X220606Y-81606D01*
X220648Y-81773D01*
Y-81787D01*
X220662Y-81856D01*
X220689Y-81953D01*
X220703Y-82092D01*
X220731Y-82258D01*
X220745Y-82480D01*
X220759Y-82716D01*
Y-83007D01*
Y-87320D01*
X218914D01*
Y-83784D01*
Y-83770D01*
Y-83728D01*
Y-83673D01*
Y-83603D01*
Y-83506D01*
Y-83409D01*
X218900Y-83174D01*
X218886Y-82938D01*
X218859Y-82688D01*
X218831Y-82480D01*
X218817Y-82397D01*
X218789Y-82327D01*
Y-82314D01*
X218762Y-82272D01*
X218734Y-82217D01*
X218692Y-82133D01*
X218567Y-81967D01*
X218498Y-81884D01*
X218401Y-81814D01*
X218387Y-81800D01*
X218359Y-81787D01*
X218304Y-81759D01*
X218221Y-81717D01*
X218124Y-81676D01*
X218027Y-81648D01*
X217902Y-81634D01*
X217763Y-81620D01*
X217680D01*
X217597Y-81634D01*
X217486Y-81648D01*
X217347Y-81690D01*
X217208Y-81731D01*
X217056Y-81800D01*
X216903Y-81884D01*
X216889Y-81898D01*
X216848Y-81925D01*
X216778Y-81995D01*
X216695Y-82064D01*
X216612Y-82175D01*
X216529Y-82286D01*
X216446Y-82438D01*
X216390Y-82591D01*
Y-82605D01*
X216362Y-82674D01*
X216348Y-82785D01*
X216321Y-82952D01*
X216307Y-83049D01*
X216293Y-83174D01*
X216279Y-83298D01*
Y-83451D01*
X216265Y-83603D01*
X216251Y-83784D01*
Y-83978D01*
Y-84186D01*
Y-87320D01*
X214407D01*
Y-80358D01*
X216113D01*
Y-81384D01*
X216127Y-81371D01*
X216154Y-81329D01*
X216210Y-81273D01*
X216279Y-81204D01*
X216362Y-81107D01*
X216473Y-81010D01*
X216598Y-80899D01*
X216737Y-80788D01*
X216889Y-80691D01*
X217070Y-80580D01*
X217250Y-80483D01*
X217458Y-80386D01*
X217680Y-80317D01*
X217902Y-80261D01*
X218151Y-80219D01*
X218401Y-80206D01*
X218498D01*
X218623Y-80219D01*
D02*
G37*
G36*
X229232Y-79346D02*
X224586D01*
Y-81620D01*
X228594D01*
Y-83243D01*
X224586D01*
Y-87320D01*
X222645D01*
Y-77723D01*
X229232D01*
Y-79346D01*
D02*
G37*
G36*
X212868Y-79179D02*
X212854Y-79193D01*
X212826Y-79221D01*
X212784Y-79263D01*
X212729Y-79318D01*
X212659Y-79401D01*
X212576Y-79498D01*
X212479Y-79609D01*
X212368Y-79748D01*
X212257Y-79900D01*
X212132Y-80067D01*
X211994Y-80247D01*
X211855Y-80441D01*
X211716Y-80663D01*
X211578Y-80885D01*
X211425Y-81135D01*
X211273Y-81398D01*
X211259Y-81412D01*
X211231Y-81468D01*
X211189Y-81537D01*
X211134Y-81648D01*
X211078Y-81773D01*
X210995Y-81939D01*
X210912Y-82120D01*
X210815Y-82314D01*
X210718Y-82535D01*
X210621Y-82771D01*
X210510Y-83021D01*
X210413Y-83284D01*
X210219Y-83853D01*
X210038Y-84449D01*
Y-84463D01*
X210025Y-84519D01*
X209997Y-84602D01*
X209969Y-84727D01*
X209941Y-84865D01*
X209914Y-85018D01*
X209872Y-85212D01*
X209830Y-85406D01*
X209789Y-85628D01*
X209761Y-85850D01*
X209692Y-86335D01*
X209650Y-86835D01*
X209636Y-87320D01*
X207861D01*
Y-87292D01*
Y-87237D01*
X207875Y-87126D01*
Y-86973D01*
X207889Y-86793D01*
X207917Y-86585D01*
X207944Y-86335D01*
X207986Y-86072D01*
X208027Y-85781D01*
X208083Y-85462D01*
X208152Y-85129D01*
X208222Y-84768D01*
X208319Y-84408D01*
X208416Y-84033D01*
X208541Y-83659D01*
X208679Y-83271D01*
X208693Y-83243D01*
X208721Y-83174D01*
X208762Y-83062D01*
X208818Y-82924D01*
X208901Y-82744D01*
X208998Y-82522D01*
X209109Y-82286D01*
X209234Y-82022D01*
X209373Y-81745D01*
X209525Y-81454D01*
X209692Y-81135D01*
X209886Y-80830D01*
X210288Y-80178D01*
X210746Y-79554D01*
X206571D01*
Y-77848D01*
X212868D01*
Y-79179D01*
D02*
G37*
G36*
X204505Y-83784D02*
X205698D01*
Y-85392D01*
X204505D01*
Y-87320D01*
X202730D01*
Y-85392D01*
X198791D01*
Y-83798D01*
X202952Y-77682D01*
X204505D01*
Y-83784D01*
D02*
G37*
G36*
X197612Y-87320D02*
X195768D01*
Y-85476D01*
X197612D01*
Y-87320D01*
D02*
G37*
G36*
X218623Y84781D02*
X218776Y84768D01*
X218942Y84740D01*
X219122Y84698D01*
X219316Y84643D01*
X219510Y84573D01*
X219538Y84559D01*
X219594Y84532D01*
X219691Y84490D01*
X219802Y84421D01*
X219926Y84338D01*
X220051Y84241D01*
X220176Y84129D01*
X220287Y84005D01*
X220301Y83991D01*
X220329Y83949D01*
X220370Y83880D01*
X220426Y83783D01*
X220495Y83672D01*
X220551Y83533D01*
X220606Y83394D01*
X220648Y83228D01*
Y83214D01*
X220662Y83145D01*
X220689Y83048D01*
X220703Y82909D01*
X220731Y82743D01*
X220745Y82521D01*
X220759Y82285D01*
Y81994D01*
Y77681D01*
X218914D01*
Y81217D01*
Y81231D01*
Y81273D01*
Y81328D01*
Y81397D01*
Y81495D01*
Y81592D01*
X218900Y81827D01*
X218886Y82063D01*
X218859Y82313D01*
X218831Y82521D01*
X218817Y82604D01*
X218789Y82673D01*
Y82687D01*
X218762Y82729D01*
X218734Y82784D01*
X218692Y82867D01*
X218567Y83034D01*
X218498Y83117D01*
X218401Y83187D01*
X218387Y83200D01*
X218359Y83214D01*
X218304Y83242D01*
X218221Y83284D01*
X218124Y83325D01*
X218027Y83353D01*
X217902Y83367D01*
X217763Y83381D01*
X217680D01*
X217597Y83367D01*
X217486Y83353D01*
X217347Y83311D01*
X217208Y83270D01*
X217056Y83200D01*
X216903Y83117D01*
X216889Y83103D01*
X216848Y83076D01*
X216778Y83006D01*
X216695Y82937D01*
X216612Y82826D01*
X216529Y82715D01*
X216446Y82562D01*
X216390Y82410D01*
Y82396D01*
X216362Y82327D01*
X216348Y82216D01*
X216321Y82049D01*
X216307Y81952D01*
X216293Y81827D01*
X216279Y81703D01*
Y81550D01*
X216265Y81397D01*
X216251Y81217D01*
Y81023D01*
Y80815D01*
Y77681D01*
X214407D01*
Y84643D01*
X216113D01*
Y83616D01*
X216127Y83630D01*
X216154Y83672D01*
X216210Y83727D01*
X216279Y83797D01*
X216362Y83894D01*
X216473Y83991D01*
X216598Y84102D01*
X216737Y84213D01*
X216889Y84310D01*
X217070Y84421D01*
X217250Y84518D01*
X217458Y84615D01*
X217680Y84684D01*
X217902Y84740D01*
X218151Y84781D01*
X218401Y84795D01*
X218498D01*
X218623Y84781D01*
D02*
G37*
G36*
X229232Y85655D02*
X224586D01*
Y83381D01*
X228594D01*
Y81758D01*
X224586D01*
Y77681D01*
X222645D01*
Y87278D01*
X229232D01*
Y85655D01*
D02*
G37*
G36*
X212868Y85822D02*
X212854Y85808D01*
X212826Y85780D01*
X212784Y85738D01*
X212729Y85683D01*
X212659Y85600D01*
X212576Y85503D01*
X212479Y85392D01*
X212368Y85253D01*
X212257Y85100D01*
X212132Y84934D01*
X211994Y84754D01*
X211855Y84559D01*
X211716Y84338D01*
X211578Y84116D01*
X211425Y83866D01*
X211273Y83603D01*
X211259Y83589D01*
X211231Y83533D01*
X211189Y83464D01*
X211134Y83353D01*
X211078Y83228D01*
X210995Y83062D01*
X210912Y82881D01*
X210815Y82687D01*
X210718Y82465D01*
X210621Y82230D01*
X210510Y81980D01*
X210413Y81716D01*
X210219Y81148D01*
X210038Y80552D01*
Y80538D01*
X210025Y80482D01*
X209997Y80399D01*
X209969Y80274D01*
X209941Y80135D01*
X209914Y79983D01*
X209872Y79789D01*
X209830Y79595D01*
X209789Y79373D01*
X209761Y79151D01*
X209692Y78665D01*
X209650Y78166D01*
X209636Y77681D01*
X207861D01*
Y77709D01*
Y77764D01*
X207875Y77875D01*
Y78028D01*
X207889Y78208D01*
X207917Y78416D01*
X207944Y78665D01*
X207986Y78929D01*
X208027Y79220D01*
X208083Y79539D01*
X208152Y79872D01*
X208222Y80232D01*
X208319Y80593D01*
X208416Y80968D01*
X208541Y81342D01*
X208679Y81730D01*
X208693Y81758D01*
X208721Y81827D01*
X208762Y81938D01*
X208818Y82077D01*
X208901Y82257D01*
X208998Y82479D01*
X209109Y82715D01*
X209234Y82978D01*
X209373Y83256D01*
X209525Y83547D01*
X209692Y83866D01*
X209886Y84171D01*
X210288Y84823D01*
X210746Y85447D01*
X206571D01*
Y87153D01*
X212868D01*
Y85822D01*
D02*
G37*
G36*
X204505Y81217D02*
X205698D01*
Y79608D01*
X204505D01*
Y77681D01*
X202730D01*
Y79608D01*
X198791D01*
Y81203D01*
X202952Y87319D01*
X204505D01*
Y81217D01*
D02*
G37*
G36*
X197612Y77681D02*
X195768D01*
Y79525D01*
X197612D01*
Y77681D01*
D02*
G37*
G36*
X509123Y-105219D02*
X509275Y-105232D01*
X509442Y-105260D01*
X509622Y-105302D01*
X509816Y-105357D01*
X510010Y-105427D01*
X510038Y-105441D01*
X510094Y-105468D01*
X510191Y-105510D01*
X510302Y-105579D01*
X510426Y-105662D01*
X510551Y-105759D01*
X510676Y-105871D01*
X510787Y-105995D01*
X510801Y-106009D01*
X510829Y-106051D01*
X510870Y-106120D01*
X510926Y-106217D01*
X510995Y-106328D01*
X511051Y-106467D01*
X511106Y-106606D01*
X511148Y-106772D01*
Y-106786D01*
X511161Y-106855D01*
X511189Y-106952D01*
X511203Y-107091D01*
X511231Y-107257D01*
X511245Y-107479D01*
X511259Y-107715D01*
Y-108006D01*
Y-112319D01*
X509414D01*
Y-108783D01*
Y-108769D01*
Y-108727D01*
Y-108672D01*
Y-108603D01*
Y-108505D01*
Y-108408D01*
X509400Y-108173D01*
X509386Y-107937D01*
X509359Y-107687D01*
X509331Y-107479D01*
X509317Y-107396D01*
X509289Y-107327D01*
Y-107313D01*
X509262Y-107271D01*
X509234Y-107216D01*
X509192Y-107133D01*
X509067Y-106966D01*
X508998Y-106883D01*
X508901Y-106813D01*
X508887Y-106800D01*
X508859Y-106786D01*
X508804Y-106758D01*
X508721Y-106716D01*
X508624Y-106675D01*
X508526Y-106647D01*
X508402Y-106633D01*
X508263Y-106619D01*
X508180D01*
X508097Y-106633D01*
X507986Y-106647D01*
X507847Y-106689D01*
X507708Y-106730D01*
X507556Y-106800D01*
X507403Y-106883D01*
X507389Y-106897D01*
X507348Y-106924D01*
X507278Y-106994D01*
X507195Y-107063D01*
X507112Y-107174D01*
X507029Y-107285D01*
X506945Y-107438D01*
X506890Y-107590D01*
Y-107604D01*
X506862Y-107673D01*
X506848Y-107784D01*
X506821Y-107951D01*
X506807Y-108048D01*
X506793Y-108173D01*
X506779Y-108297D01*
Y-108450D01*
X506765Y-108603D01*
X506751Y-108783D01*
Y-108977D01*
Y-109185D01*
Y-112319D01*
X504907D01*
Y-105357D01*
X506613D01*
Y-106384D01*
X506627Y-106370D01*
X506654Y-106328D01*
X506710Y-106273D01*
X506779Y-106203D01*
X506862Y-106106D01*
X506973Y-106009D01*
X507098Y-105898D01*
X507237Y-105787D01*
X507389Y-105690D01*
X507570Y-105579D01*
X507750Y-105482D01*
X507958Y-105385D01*
X508180Y-105316D01*
X508402Y-105260D01*
X508651Y-105219D01*
X508901Y-105205D01*
X508998D01*
X509123Y-105219D01*
D02*
G37*
G36*
X519732Y-104345D02*
X515086D01*
Y-106619D01*
X519094D01*
Y-108242D01*
X515086D01*
Y-112319D01*
X513145D01*
Y-102722D01*
X519732D01*
Y-104345D01*
D02*
G37*
G36*
X503368Y-104178D02*
X503354Y-104192D01*
X503326Y-104220D01*
X503284Y-104262D01*
X503229Y-104317D01*
X503159Y-104400D01*
X503076Y-104497D01*
X502979Y-104608D01*
X502868Y-104747D01*
X502757Y-104900D01*
X502632Y-105066D01*
X502494Y-105246D01*
X502355Y-105441D01*
X502216Y-105662D01*
X502078Y-105884D01*
X501925Y-106134D01*
X501773Y-106397D01*
X501759Y-106411D01*
X501731Y-106467D01*
X501689Y-106536D01*
X501634Y-106647D01*
X501578Y-106772D01*
X501495Y-106938D01*
X501412Y-107119D01*
X501315Y-107313D01*
X501218Y-107535D01*
X501121Y-107770D01*
X501010Y-108020D01*
X500913Y-108284D01*
X500719Y-108852D01*
X500538Y-109448D01*
Y-109462D01*
X500524Y-109518D01*
X500497Y-109601D01*
X500469Y-109726D01*
X500441Y-109865D01*
X500414Y-110017D01*
X500372Y-110211D01*
X500330Y-110405D01*
X500289Y-110627D01*
X500261Y-110849D01*
X500192Y-111335D01*
X500150Y-111834D01*
X500136Y-112319D01*
X498361D01*
Y-112291D01*
Y-112236D01*
X498375Y-112125D01*
Y-111973D01*
X498389Y-111792D01*
X498416Y-111584D01*
X498444Y-111335D01*
X498486Y-111071D01*
X498527Y-110780D01*
X498583Y-110461D01*
X498652Y-110128D01*
X498722Y-109768D01*
X498819Y-109407D01*
X498916Y-109032D01*
X499041Y-108658D01*
X499179Y-108270D01*
X499193Y-108242D01*
X499221Y-108173D01*
X499263Y-108062D01*
X499318Y-107923D01*
X499401Y-107743D01*
X499498Y-107521D01*
X499609Y-107285D01*
X499734Y-107022D01*
X499873Y-106744D01*
X500025Y-106453D01*
X500192Y-106134D01*
X500386Y-105829D01*
X500788Y-105177D01*
X501246Y-104553D01*
X497071D01*
Y-102847D01*
X503368D01*
Y-104178D01*
D02*
G37*
G36*
X495005Y-108783D02*
X496198D01*
Y-110392D01*
X495005D01*
Y-112319D01*
X493230D01*
Y-110392D01*
X489291D01*
Y-108797D01*
X493452Y-102681D01*
X495005D01*
Y-108783D01*
D02*
G37*
G36*
X488112Y-112319D02*
X486268D01*
Y-110475D01*
X488112D01*
Y-112319D01*
D02*
G37*
G36*
X427123Y-105219D02*
X427275Y-105232D01*
X427442Y-105260D01*
X427622Y-105302D01*
X427816Y-105357D01*
X428010Y-105427D01*
X428038Y-105441D01*
X428094Y-105468D01*
X428191Y-105510D01*
X428302Y-105579D01*
X428427Y-105662D01*
X428551Y-105759D01*
X428676Y-105871D01*
X428787Y-105995D01*
X428801Y-106009D01*
X428829Y-106051D01*
X428870Y-106120D01*
X428926Y-106217D01*
X428995Y-106328D01*
X429051Y-106467D01*
X429106Y-106606D01*
X429148Y-106772D01*
Y-106786D01*
X429161Y-106855D01*
X429189Y-106952D01*
X429203Y-107091D01*
X429231Y-107257D01*
X429245Y-107479D01*
X429259Y-107715D01*
Y-108006D01*
Y-112319D01*
X427414D01*
Y-108783D01*
Y-108769D01*
Y-108727D01*
Y-108672D01*
Y-108603D01*
Y-108505D01*
Y-108408D01*
X427400Y-108173D01*
X427386Y-107937D01*
X427359Y-107687D01*
X427331Y-107479D01*
X427317Y-107396D01*
X427289Y-107327D01*
Y-107313D01*
X427262Y-107271D01*
X427234Y-107216D01*
X427192Y-107133D01*
X427067Y-106966D01*
X426998Y-106883D01*
X426901Y-106813D01*
X426887Y-106800D01*
X426859Y-106786D01*
X426804Y-106758D01*
X426721Y-106716D01*
X426624Y-106675D01*
X426526Y-106647D01*
X426402Y-106633D01*
X426263Y-106619D01*
X426180D01*
X426097Y-106633D01*
X425986Y-106647D01*
X425847Y-106689D01*
X425708Y-106730D01*
X425556Y-106800D01*
X425403Y-106883D01*
X425389Y-106897D01*
X425348Y-106924D01*
X425278Y-106994D01*
X425195Y-107063D01*
X425112Y-107174D01*
X425029Y-107285D01*
X424945Y-107438D01*
X424890Y-107590D01*
Y-107604D01*
X424862Y-107673D01*
X424849Y-107784D01*
X424821Y-107951D01*
X424807Y-108048D01*
X424793Y-108173D01*
X424779Y-108297D01*
Y-108450D01*
X424765Y-108603D01*
X424751Y-108783D01*
Y-108977D01*
Y-109185D01*
Y-112319D01*
X422907D01*
Y-105357D01*
X424613D01*
Y-106384D01*
X424627Y-106370D01*
X424654Y-106328D01*
X424710Y-106273D01*
X424779Y-106203D01*
X424862Y-106106D01*
X424973Y-106009D01*
X425098Y-105898D01*
X425237Y-105787D01*
X425389Y-105690D01*
X425570Y-105579D01*
X425750Y-105482D01*
X425958Y-105385D01*
X426180Y-105316D01*
X426402Y-105260D01*
X426651Y-105219D01*
X426901Y-105205D01*
X426998D01*
X427123Y-105219D01*
D02*
G37*
G36*
X437732Y-104345D02*
X433086D01*
Y-106619D01*
X437094D01*
Y-108242D01*
X433086D01*
Y-112319D01*
X431145D01*
Y-102722D01*
X437732D01*
Y-104345D01*
D02*
G37*
G36*
X421367Y-104178D02*
X421354Y-104192D01*
X421326Y-104220D01*
X421284Y-104262D01*
X421229Y-104317D01*
X421160Y-104400D01*
X421076Y-104497D01*
X420979Y-104608D01*
X420868Y-104747D01*
X420757Y-104900D01*
X420633Y-105066D01*
X420494Y-105246D01*
X420355Y-105441D01*
X420216Y-105662D01*
X420078Y-105884D01*
X419925Y-106134D01*
X419773Y-106397D01*
X419759Y-106411D01*
X419731Y-106467D01*
X419689Y-106536D01*
X419634Y-106647D01*
X419579Y-106772D01*
X419495Y-106938D01*
X419412Y-107119D01*
X419315Y-107313D01*
X419218Y-107535D01*
X419121Y-107770D01*
X419010Y-108020D01*
X418913Y-108284D01*
X418719Y-108852D01*
X418538Y-109448D01*
Y-109462D01*
X418525Y-109518D01*
X418497Y-109601D01*
X418469Y-109726D01*
X418441Y-109865D01*
X418414Y-110017D01*
X418372Y-110211D01*
X418330Y-110405D01*
X418289Y-110627D01*
X418261Y-110849D01*
X418192Y-111335D01*
X418150Y-111834D01*
X418136Y-112319D01*
X416361D01*
Y-112291D01*
Y-112236D01*
X416375Y-112125D01*
Y-111973D01*
X416389Y-111792D01*
X416417Y-111584D01*
X416444Y-111335D01*
X416486Y-111071D01*
X416527Y-110780D01*
X416583Y-110461D01*
X416652Y-110128D01*
X416722Y-109768D01*
X416819Y-109407D01*
X416916Y-109032D01*
X417040Y-108658D01*
X417179Y-108270D01*
X417193Y-108242D01*
X417221Y-108173D01*
X417262Y-108062D01*
X417318Y-107923D01*
X417401Y-107743D01*
X417498Y-107521D01*
X417609Y-107285D01*
X417734Y-107022D01*
X417873Y-106744D01*
X418025Y-106453D01*
X418192Y-106134D01*
X418386Y-105829D01*
X418788Y-105177D01*
X419246Y-104553D01*
X415071D01*
Y-102847D01*
X421367D01*
Y-104178D01*
D02*
G37*
G36*
X413005Y-108783D02*
X414198D01*
Y-110392D01*
X413005D01*
Y-112319D01*
X411230D01*
Y-110392D01*
X407291D01*
Y-108797D01*
X411452Y-102681D01*
X413005D01*
Y-108783D01*
D02*
G37*
G36*
X406112Y-112319D02*
X404268D01*
Y-110475D01*
X406112D01*
Y-112319D01*
D02*
G37*
G36*
X427477Y-40219D02*
X427629Y-40233D01*
X427795Y-40260D01*
X427976Y-40302D01*
X428170Y-40357D01*
X428364Y-40427D01*
X428392Y-40441D01*
X428447Y-40468D01*
X428544Y-40510D01*
X428655Y-40579D01*
X428780Y-40662D01*
X428905Y-40760D01*
X429030Y-40870D01*
X429141Y-40995D01*
X429155Y-41009D01*
X429182Y-41051D01*
X429224Y-41120D01*
X429279Y-41217D01*
X429349Y-41328D01*
X429404Y-41467D01*
X429460Y-41606D01*
X429501Y-41772D01*
Y-41786D01*
X429515Y-41855D01*
X429543Y-41952D01*
X429557Y-42091D01*
X429585Y-42257D01*
X429598Y-42479D01*
X429612Y-42715D01*
Y-43006D01*
Y-47319D01*
X427768D01*
Y-43783D01*
Y-43769D01*
Y-43727D01*
Y-43672D01*
Y-43603D01*
Y-43506D01*
Y-43408D01*
X427754Y-43173D01*
X427740Y-42937D01*
X427712Y-42687D01*
X427685Y-42479D01*
X427671Y-42396D01*
X427643Y-42327D01*
Y-42313D01*
X427615Y-42271D01*
X427588Y-42216D01*
X427546Y-42133D01*
X427421Y-41966D01*
X427352Y-41883D01*
X427255Y-41814D01*
X427241Y-41800D01*
X427213Y-41786D01*
X427158Y-41758D01*
X427074Y-41716D01*
X426977Y-41675D01*
X426880Y-41647D01*
X426755Y-41633D01*
X426617Y-41619D01*
X426534D01*
X426450Y-41633D01*
X426339Y-41647D01*
X426201Y-41689D01*
X426062Y-41730D01*
X425909Y-41800D01*
X425757Y-41883D01*
X425743Y-41897D01*
X425701Y-41925D01*
X425632Y-41994D01*
X425549Y-42063D01*
X425466Y-42174D01*
X425382Y-42285D01*
X425299Y-42438D01*
X425244Y-42590D01*
Y-42604D01*
X425216Y-42673D01*
X425202Y-42784D01*
X425174Y-42951D01*
X425160Y-43048D01*
X425147Y-43173D01*
X425133Y-43297D01*
Y-43450D01*
X425119Y-43603D01*
X425105Y-43783D01*
Y-43977D01*
Y-44185D01*
Y-47319D01*
X423260D01*
Y-40357D01*
X424966D01*
Y-41384D01*
X424980Y-41370D01*
X425008Y-41328D01*
X425063Y-41273D01*
X425133Y-41203D01*
X425216Y-41106D01*
X425327Y-41009D01*
X425452Y-40898D01*
X425590Y-40787D01*
X425743Y-40690D01*
X425923Y-40579D01*
X426104Y-40482D01*
X426312Y-40385D01*
X426534Y-40316D01*
X426755Y-40260D01*
X427005Y-40219D01*
X427255Y-40205D01*
X427352D01*
X427477Y-40219D01*
D02*
G37*
G36*
X438086Y-39345D02*
X433440D01*
Y-41619D01*
X437448D01*
Y-43242D01*
X433440D01*
Y-47319D01*
X431498D01*
Y-37722D01*
X438086D01*
Y-39345D01*
D02*
G37*
G36*
X421721Y-39179D02*
X421707Y-39192D01*
X421679Y-39220D01*
X421638Y-39262D01*
X421582Y-39317D01*
X421513Y-39400D01*
X421430Y-39497D01*
X421333Y-39609D01*
X421222Y-39747D01*
X421111Y-39900D01*
X420986Y-40066D01*
X420847Y-40246D01*
X420709Y-40441D01*
X420570Y-40662D01*
X420431Y-40884D01*
X420279Y-41134D01*
X420126Y-41398D01*
X420112Y-41411D01*
X420085Y-41467D01*
X420043Y-41536D01*
X419988Y-41647D01*
X419932Y-41772D01*
X419849Y-41938D01*
X419766Y-42119D01*
X419669Y-42313D01*
X419571Y-42535D01*
X419474Y-42771D01*
X419364Y-43020D01*
X419266Y-43284D01*
X419072Y-43852D01*
X418892Y-44448D01*
Y-44462D01*
X418878Y-44518D01*
X418850Y-44601D01*
X418823Y-44726D01*
X418795Y-44865D01*
X418767Y-45017D01*
X418726Y-45211D01*
X418684Y-45405D01*
X418642Y-45627D01*
X418615Y-45849D01*
X418545Y-46335D01*
X418504Y-46834D01*
X418490Y-47319D01*
X416715D01*
Y-47291D01*
Y-47236D01*
X416729Y-47125D01*
Y-46973D01*
X416742Y-46792D01*
X416770Y-46584D01*
X416798Y-46335D01*
X416839Y-46071D01*
X416881Y-45780D01*
X416936Y-45461D01*
X417006Y-45128D01*
X417075Y-44767D01*
X417172Y-44407D01*
X417269Y-44033D01*
X417394Y-43658D01*
X417533Y-43270D01*
X417547Y-43242D01*
X417575Y-43173D01*
X417616Y-43062D01*
X417672Y-42923D01*
X417755Y-42743D01*
X417852Y-42521D01*
X417963Y-42285D01*
X418088Y-42022D01*
X418226Y-41744D01*
X418379Y-41453D01*
X418545Y-41134D01*
X418739Y-40829D01*
X419142Y-40177D01*
X419599Y-39553D01*
X415425D01*
Y-37847D01*
X421721D01*
Y-39179D01*
D02*
G37*
G36*
X413927Y-47319D02*
X412083D01*
Y-45475D01*
X413927D01*
Y-47319D01*
D02*
G37*
G36*
X409628Y-43783D02*
X410821D01*
Y-45392D01*
X409628D01*
Y-47319D01*
X407853D01*
Y-45392D01*
X403914D01*
Y-43797D01*
X408075Y-37681D01*
X409628D01*
Y-43783D01*
D02*
G37*
G36*
X509477Y-40219D02*
X509629Y-40233D01*
X509795Y-40260D01*
X509976Y-40302D01*
X510170Y-40357D01*
X510364Y-40427D01*
X510392Y-40441D01*
X510447Y-40468D01*
X510544Y-40510D01*
X510655Y-40579D01*
X510780Y-40662D01*
X510905Y-40760D01*
X511030Y-40870D01*
X511141Y-40995D01*
X511155Y-41009D01*
X511182Y-41051D01*
X511224Y-41120D01*
X511279Y-41217D01*
X511349Y-41328D01*
X511404Y-41467D01*
X511460Y-41606D01*
X511501Y-41772D01*
Y-41786D01*
X511515Y-41855D01*
X511543Y-41952D01*
X511557Y-42091D01*
X511585Y-42257D01*
X511598Y-42479D01*
X511612Y-42715D01*
Y-43006D01*
Y-47319D01*
X509768D01*
Y-43783D01*
Y-43769D01*
Y-43727D01*
Y-43672D01*
Y-43603D01*
Y-43506D01*
Y-43408D01*
X509754Y-43173D01*
X509740Y-42937D01*
X509712Y-42687D01*
X509685Y-42479D01*
X509671Y-42396D01*
X509643Y-42327D01*
Y-42313D01*
X509615Y-42271D01*
X509588Y-42216D01*
X509546Y-42133D01*
X509421Y-41966D01*
X509352Y-41883D01*
X509255Y-41814D01*
X509241Y-41800D01*
X509213Y-41786D01*
X509158Y-41758D01*
X509074Y-41716D01*
X508977Y-41675D01*
X508880Y-41647D01*
X508755Y-41633D01*
X508617Y-41619D01*
X508534D01*
X508450Y-41633D01*
X508339Y-41647D01*
X508201Y-41689D01*
X508062Y-41730D01*
X507909Y-41800D01*
X507757Y-41883D01*
X507743Y-41897D01*
X507701Y-41925D01*
X507632Y-41994D01*
X507549Y-42063D01*
X507466Y-42174D01*
X507382Y-42285D01*
X507299Y-42438D01*
X507244Y-42590D01*
Y-42604D01*
X507216Y-42673D01*
X507202Y-42784D01*
X507174Y-42951D01*
X507160Y-43048D01*
X507147Y-43173D01*
X507133Y-43297D01*
Y-43450D01*
X507119Y-43603D01*
X507105Y-43783D01*
Y-43977D01*
Y-44185D01*
Y-47319D01*
X505261D01*
Y-40357D01*
X506966D01*
Y-41384D01*
X506980Y-41370D01*
X507008Y-41328D01*
X507063Y-41273D01*
X507133Y-41203D01*
X507216Y-41106D01*
X507327Y-41009D01*
X507452Y-40898D01*
X507590Y-40787D01*
X507743Y-40690D01*
X507923Y-40579D01*
X508104Y-40482D01*
X508312Y-40385D01*
X508534Y-40316D01*
X508755Y-40260D01*
X509005Y-40219D01*
X509255Y-40205D01*
X509352D01*
X509477Y-40219D01*
D02*
G37*
G36*
X520086Y-39345D02*
X515440D01*
Y-41619D01*
X519448D01*
Y-43242D01*
X515440D01*
Y-47319D01*
X513498D01*
Y-37722D01*
X520086D01*
Y-39345D01*
D02*
G37*
G36*
X503721Y-39179D02*
X503707Y-39192D01*
X503680Y-39220D01*
X503638Y-39262D01*
X503582Y-39317D01*
X503513Y-39400D01*
X503430Y-39497D01*
X503333Y-39609D01*
X503222Y-39747D01*
X503111Y-39900D01*
X502986Y-40066D01*
X502847Y-40246D01*
X502709Y-40441D01*
X502570Y-40662D01*
X502431Y-40884D01*
X502279Y-41134D01*
X502126Y-41398D01*
X502112Y-41411D01*
X502085Y-41467D01*
X502043Y-41536D01*
X501988Y-41647D01*
X501932Y-41772D01*
X501849Y-41938D01*
X501766Y-42119D01*
X501669Y-42313D01*
X501572Y-42535D01*
X501474Y-42771D01*
X501363Y-43020D01*
X501266Y-43284D01*
X501072Y-43852D01*
X500892Y-44448D01*
Y-44462D01*
X500878Y-44518D01*
X500850Y-44601D01*
X500823Y-44726D01*
X500795Y-44865D01*
X500767Y-45017D01*
X500726Y-45211D01*
X500684Y-45405D01*
X500642Y-45627D01*
X500615Y-45849D01*
X500545Y-46335D01*
X500504Y-46834D01*
X500490Y-47319D01*
X498715D01*
Y-47291D01*
Y-47236D01*
X498728Y-47125D01*
Y-46973D01*
X498742Y-46792D01*
X498770Y-46584D01*
X498798Y-46335D01*
X498839Y-46071D01*
X498881Y-45780D01*
X498937Y-45461D01*
X499006Y-45128D01*
X499075Y-44767D01*
X499172Y-44407D01*
X499269Y-44033D01*
X499394Y-43658D01*
X499533Y-43270D01*
X499547Y-43242D01*
X499575Y-43173D01*
X499616Y-43062D01*
X499672Y-42923D01*
X499755Y-42743D01*
X499852Y-42521D01*
X499963Y-42285D01*
X500088Y-42022D01*
X500226Y-41744D01*
X500379Y-41453D01*
X500545Y-41134D01*
X500739Y-40829D01*
X501142Y-40177D01*
X501599Y-39553D01*
X497425D01*
Y-37847D01*
X503721D01*
Y-39179D01*
D02*
G37*
G36*
X495927Y-47319D02*
X494083D01*
Y-45475D01*
X495927D01*
Y-47319D01*
D02*
G37*
G36*
X491628Y-43783D02*
X492821D01*
Y-45392D01*
X491628D01*
Y-47319D01*
X489853D01*
Y-45392D01*
X485914D01*
Y-43797D01*
X490075Y-37681D01*
X491628D01*
Y-43783D01*
D02*
G37*
G36*
X427477Y44781D02*
X427629Y44767D01*
X427795Y44740D01*
X427976Y44698D01*
X428170Y44643D01*
X428364Y44573D01*
X428392Y44559D01*
X428447Y44532D01*
X428544Y44490D01*
X428655Y44421D01*
X428780Y44338D01*
X428905Y44240D01*
X429030Y44130D01*
X429141Y44005D01*
X429155Y43991D01*
X429182Y43949D01*
X429224Y43880D01*
X429279Y43783D01*
X429349Y43672D01*
X429404Y43533D01*
X429460Y43394D01*
X429501Y43228D01*
Y43214D01*
X429515Y43145D01*
X429543Y43048D01*
X429557Y42909D01*
X429585Y42743D01*
X429598Y42521D01*
X429612Y42285D01*
Y41994D01*
Y37681D01*
X427768D01*
Y41217D01*
Y41231D01*
Y41273D01*
Y41328D01*
Y41398D01*
Y41495D01*
Y41592D01*
X427754Y41827D01*
X427740Y42063D01*
X427712Y42313D01*
X427685Y42521D01*
X427671Y42604D01*
X427643Y42673D01*
Y42687D01*
X427615Y42729D01*
X427588Y42784D01*
X427546Y42867D01*
X427421Y43034D01*
X427352Y43117D01*
X427255Y43186D01*
X427241Y43200D01*
X427213Y43214D01*
X427158Y43242D01*
X427074Y43284D01*
X426977Y43325D01*
X426880Y43353D01*
X426755Y43367D01*
X426617Y43381D01*
X426534D01*
X426450Y43367D01*
X426339Y43353D01*
X426201Y43311D01*
X426062Y43270D01*
X425909Y43200D01*
X425757Y43117D01*
X425743Y43103D01*
X425701Y43076D01*
X425632Y43006D01*
X425549Y42937D01*
X425466Y42826D01*
X425382Y42715D01*
X425299Y42562D01*
X425244Y42410D01*
Y42396D01*
X425216Y42327D01*
X425202Y42216D01*
X425174Y42049D01*
X425160Y41952D01*
X425147Y41827D01*
X425133Y41703D01*
Y41550D01*
X425119Y41398D01*
X425105Y41217D01*
Y41023D01*
Y40815D01*
Y37681D01*
X423260D01*
Y44643D01*
X424966D01*
Y43616D01*
X424980Y43630D01*
X425008Y43672D01*
X425063Y43727D01*
X425133Y43797D01*
X425216Y43894D01*
X425327Y43991D01*
X425452Y44102D01*
X425590Y44213D01*
X425743Y44310D01*
X425923Y44421D01*
X426104Y44518D01*
X426312Y44615D01*
X426534Y44684D01*
X426755Y44740D01*
X427005Y44781D01*
X427255Y44795D01*
X427352D01*
X427477Y44781D01*
D02*
G37*
G36*
X438086Y45655D02*
X433440D01*
Y43381D01*
X437448D01*
Y41758D01*
X433440D01*
Y37681D01*
X431498D01*
Y47278D01*
X438086D01*
Y45655D01*
D02*
G37*
G36*
X421721Y45821D02*
X421707Y45808D01*
X421679Y45780D01*
X421638Y45738D01*
X421582Y45683D01*
X421513Y45600D01*
X421430Y45503D01*
X421333Y45392D01*
X421222Y45253D01*
X421111Y45100D01*
X420986Y44934D01*
X420847Y44754D01*
X420709Y44559D01*
X420570Y44338D01*
X420431Y44116D01*
X420279Y43866D01*
X420126Y43603D01*
X420112Y43589D01*
X420085Y43533D01*
X420043Y43464D01*
X419988Y43353D01*
X419932Y43228D01*
X419849Y43062D01*
X419766Y42881D01*
X419669Y42687D01*
X419571Y42465D01*
X419474Y42230D01*
X419364Y41980D01*
X419266Y41716D01*
X419072Y41148D01*
X418892Y40552D01*
Y40538D01*
X418878Y40482D01*
X418850Y40399D01*
X418823Y40274D01*
X418795Y40135D01*
X418767Y39983D01*
X418726Y39789D01*
X418684Y39595D01*
X418642Y39373D01*
X418615Y39151D01*
X418545Y38665D01*
X418504Y38166D01*
X418490Y37681D01*
X416715D01*
Y37708D01*
Y37764D01*
X416729Y37875D01*
Y38028D01*
X416742Y38208D01*
X416770Y38416D01*
X416798Y38665D01*
X416839Y38929D01*
X416881Y39220D01*
X416936Y39539D01*
X417006Y39872D01*
X417075Y40233D01*
X417172Y40593D01*
X417269Y40968D01*
X417394Y41342D01*
X417533Y41730D01*
X417547Y41758D01*
X417575Y41827D01*
X417616Y41938D01*
X417672Y42077D01*
X417755Y42257D01*
X417852Y42479D01*
X417963Y42715D01*
X418088Y42979D01*
X418226Y43256D01*
X418379Y43547D01*
X418545Y43866D01*
X418739Y44171D01*
X419142Y44823D01*
X419599Y45447D01*
X415425D01*
Y47153D01*
X421721D01*
Y45821D01*
D02*
G37*
G36*
X413927Y37681D02*
X412083D01*
Y39525D01*
X413927D01*
Y37681D01*
D02*
G37*
G36*
X409628Y41217D02*
X410821D01*
Y39609D01*
X409628D01*
Y37681D01*
X407853D01*
Y39609D01*
X403914D01*
Y41203D01*
X408075Y47319D01*
X409628D01*
Y41217D01*
D02*
G37*
G36*
X427123Y109782D02*
X427275Y109768D01*
X427442Y109741D01*
X427622Y109699D01*
X427816Y109643D01*
X428010Y109574D01*
X428038Y109560D01*
X428094Y109533D01*
X428191Y109491D01*
X428302Y109422D01*
X428427Y109338D01*
X428551Y109241D01*
X428676Y109130D01*
X428787Y109006D01*
X428801Y108992D01*
X428829Y108950D01*
X428870Y108881D01*
X428926Y108784D01*
X428995Y108673D01*
X429051Y108534D01*
X429106Y108395D01*
X429148Y108229D01*
Y108215D01*
X429161Y108146D01*
X429189Y108049D01*
X429203Y107910D01*
X429231Y107744D01*
X429245Y107522D01*
X429259Y107286D01*
Y106995D01*
Y102682D01*
X427414D01*
Y106218D01*
Y106232D01*
Y106273D01*
Y106329D01*
Y106398D01*
Y106495D01*
Y106593D01*
X427400Y106828D01*
X427386Y107064D01*
X427359Y107314D01*
X427331Y107522D01*
X427317Y107605D01*
X427289Y107674D01*
Y107688D01*
X427262Y107730D01*
X427234Y107785D01*
X427192Y107868D01*
X427067Y108035D01*
X426998Y108118D01*
X426901Y108187D01*
X426887Y108201D01*
X426859Y108215D01*
X426804Y108243D01*
X426721Y108284D01*
X426624Y108326D01*
X426526Y108354D01*
X426402Y108368D01*
X426263Y108382D01*
X426180D01*
X426097Y108368D01*
X425986Y108354D01*
X425847Y108312D01*
X425708Y108271D01*
X425556Y108201D01*
X425403Y108118D01*
X425389Y108104D01*
X425348Y108076D01*
X425278Y108007D01*
X425195Y107938D01*
X425112Y107827D01*
X425029Y107716D01*
X424945Y107563D01*
X424890Y107411D01*
Y107397D01*
X424862Y107327D01*
X424849Y107217D01*
X424821Y107050D01*
X424807Y106953D01*
X424793Y106828D01*
X424779Y106703D01*
Y106551D01*
X424765Y106398D01*
X424751Y106218D01*
Y106024D01*
Y105816D01*
Y102682D01*
X422907D01*
Y109643D01*
X424613D01*
Y108617D01*
X424627Y108631D01*
X424654Y108673D01*
X424710Y108728D01*
X424779Y108798D01*
X424862Y108895D01*
X424973Y108992D01*
X425098Y109103D01*
X425237Y109214D01*
X425389Y109311D01*
X425570Y109422D01*
X425750Y109519D01*
X425958Y109616D01*
X426180Y109685D01*
X426402Y109741D01*
X426651Y109782D01*
X426901Y109796D01*
X426998D01*
X427123Y109782D01*
D02*
G37*
G36*
X437732Y110656D02*
X433086D01*
Y108382D01*
X437094D01*
Y106759D01*
X433086D01*
Y102682D01*
X431145D01*
Y112278D01*
X437732D01*
Y110656D01*
D02*
G37*
G36*
X421367Y110822D02*
X421354Y110808D01*
X421326Y110781D01*
X421284Y110739D01*
X421229Y110684D01*
X421160Y110600D01*
X421076Y110503D01*
X420979Y110392D01*
X420868Y110254D01*
X420757Y110101D01*
X420633Y109935D01*
X420494Y109754D01*
X420355Y109560D01*
X420216Y109338D01*
X420078Y109116D01*
X419925Y108867D01*
X419773Y108603D01*
X419759Y108589D01*
X419731Y108534D01*
X419689Y108465D01*
X419634Y108354D01*
X419579Y108229D01*
X419495Y108062D01*
X419412Y107882D01*
X419315Y107688D01*
X419218Y107466D01*
X419121Y107230D01*
X419010Y106981D01*
X418913Y106717D01*
X418719Y106149D01*
X418538Y105552D01*
Y105539D01*
X418525Y105483D01*
X418497Y105400D01*
X418469Y105275D01*
X418441Y105136D01*
X418414Y104984D01*
X418372Y104790D01*
X418330Y104595D01*
X418289Y104374D01*
X418261Y104152D01*
X418192Y103666D01*
X418150Y103167D01*
X418136Y102682D01*
X416361D01*
Y102709D01*
Y102765D01*
X416375Y102876D01*
Y103028D01*
X416389Y103209D01*
X416417Y103417D01*
X416444Y103666D01*
X416486Y103930D01*
X416527Y104221D01*
X416583Y104540D01*
X416652Y104873D01*
X416722Y105233D01*
X416819Y105594D01*
X416916Y105968D01*
X417040Y106343D01*
X417179Y106731D01*
X417193Y106759D01*
X417221Y106828D01*
X417262Y106939D01*
X417318Y107078D01*
X417401Y107258D01*
X417498Y107480D01*
X417609Y107716D01*
X417734Y107979D01*
X417873Y108257D01*
X418025Y108548D01*
X418192Y108867D01*
X418386Y109172D01*
X418788Y109824D01*
X419246Y110448D01*
X415071D01*
Y112154D01*
X421367D01*
Y110822D01*
D02*
G37*
G36*
X413005Y106218D02*
X414198D01*
Y104609D01*
X413005D01*
Y102682D01*
X411230D01*
Y104609D01*
X407291D01*
Y106204D01*
X411452Y112320D01*
X413005D01*
Y106218D01*
D02*
G37*
G36*
X406112Y102682D02*
X404268D01*
Y104526D01*
X406112D01*
Y102682D01*
D02*
G37*
G36*
X509123Y109781D02*
X509275Y109768D01*
X509442Y109740D01*
X509622Y109698D01*
X509816Y109643D01*
X510010Y109573D01*
X510038Y109559D01*
X510094Y109532D01*
X510191Y109490D01*
X510302Y109421D01*
X510426Y109338D01*
X510551Y109241D01*
X510676Y109130D01*
X510787Y109005D01*
X510801Y108991D01*
X510829Y108949D01*
X510870Y108880D01*
X510926Y108783D01*
X510995Y108672D01*
X511051Y108533D01*
X511106Y108394D01*
X511148Y108228D01*
Y108214D01*
X511161Y108145D01*
X511189Y108048D01*
X511203Y107909D01*
X511231Y107743D01*
X511245Y107521D01*
X511259Y107285D01*
Y106994D01*
Y102681D01*
X509414D01*
Y106217D01*
Y106231D01*
Y106273D01*
Y106328D01*
Y106397D01*
Y106495D01*
Y106592D01*
X509400Y106827D01*
X509386Y107063D01*
X509359Y107313D01*
X509331Y107521D01*
X509317Y107604D01*
X509289Y107673D01*
Y107687D01*
X509262Y107729D01*
X509234Y107784D01*
X509192Y107867D01*
X509067Y108034D01*
X508998Y108117D01*
X508901Y108187D01*
X508887Y108200D01*
X508859Y108214D01*
X508804Y108242D01*
X508721Y108284D01*
X508624Y108325D01*
X508526Y108353D01*
X508402Y108367D01*
X508263Y108381D01*
X508180D01*
X508097Y108367D01*
X507986Y108353D01*
X507847Y108311D01*
X507708Y108270D01*
X507556Y108200D01*
X507403Y108117D01*
X507389Y108103D01*
X507348Y108076D01*
X507278Y108006D01*
X507195Y107937D01*
X507112Y107826D01*
X507029Y107715D01*
X506945Y107562D01*
X506890Y107410D01*
Y107396D01*
X506862Y107327D01*
X506848Y107216D01*
X506821Y107049D01*
X506807Y106952D01*
X506793Y106827D01*
X506779Y106703D01*
Y106550D01*
X506765Y106397D01*
X506751Y106217D01*
Y106023D01*
Y105815D01*
Y102681D01*
X504907D01*
Y109643D01*
X506613D01*
Y108616D01*
X506627Y108630D01*
X506654Y108672D01*
X506710Y108727D01*
X506779Y108797D01*
X506862Y108894D01*
X506973Y108991D01*
X507098Y109102D01*
X507237Y109213D01*
X507389Y109310D01*
X507570Y109421D01*
X507750Y109518D01*
X507958Y109615D01*
X508180Y109684D01*
X508402Y109740D01*
X508651Y109781D01*
X508901Y109795D01*
X508998D01*
X509123Y109781D01*
D02*
G37*
G36*
X519732Y110655D02*
X515086D01*
Y108381D01*
X519094D01*
Y106758D01*
X515086D01*
Y102681D01*
X513145D01*
Y112278D01*
X519732D01*
Y110655D01*
D02*
G37*
G36*
X503368Y110822D02*
X503354Y110808D01*
X503326Y110780D01*
X503284Y110738D01*
X503229Y110683D01*
X503159Y110600D01*
X503076Y110503D01*
X502979Y110392D01*
X502868Y110253D01*
X502757Y110100D01*
X502632Y109934D01*
X502494Y109754D01*
X502355Y109559D01*
X502216Y109338D01*
X502078Y109116D01*
X501925Y108866D01*
X501773Y108603D01*
X501759Y108589D01*
X501731Y108533D01*
X501689Y108464D01*
X501634Y108353D01*
X501578Y108228D01*
X501495Y108062D01*
X501412Y107881D01*
X501315Y107687D01*
X501218Y107465D01*
X501121Y107230D01*
X501010Y106980D01*
X500913Y106716D01*
X500719Y106148D01*
X500538Y105552D01*
Y105538D01*
X500524Y105482D01*
X500497Y105399D01*
X500469Y105274D01*
X500441Y105135D01*
X500414Y104983D01*
X500372Y104789D01*
X500330Y104595D01*
X500289Y104373D01*
X500261Y104151D01*
X500192Y103665D01*
X500150Y103166D01*
X500136Y102681D01*
X498361D01*
Y102709D01*
Y102764D01*
X498375Y102875D01*
Y103027D01*
X498389Y103208D01*
X498416Y103416D01*
X498444Y103665D01*
X498486Y103929D01*
X498527Y104220D01*
X498583Y104539D01*
X498652Y104872D01*
X498722Y105232D01*
X498819Y105593D01*
X498916Y105968D01*
X499041Y106342D01*
X499179Y106730D01*
X499193Y106758D01*
X499221Y106827D01*
X499263Y106938D01*
X499318Y107077D01*
X499401Y107257D01*
X499498Y107479D01*
X499609Y107715D01*
X499734Y107978D01*
X499873Y108256D01*
X500025Y108547D01*
X500192Y108866D01*
X500386Y109171D01*
X500788Y109823D01*
X501246Y110447D01*
X497071D01*
Y112153D01*
X503368D01*
Y110822D01*
D02*
G37*
G36*
X495005Y106217D02*
X496198D01*
Y104608D01*
X495005D01*
Y102681D01*
X493230D01*
Y104608D01*
X489291D01*
Y106203D01*
X493452Y112319D01*
X495005D01*
Y106217D01*
D02*
G37*
G36*
X488112Y102681D02*
X486268D01*
Y104525D01*
X488112D01*
Y102681D01*
D02*
G37*
G36*
X509477Y44781D02*
X509629Y44767D01*
X509795Y44739D01*
X509976Y44697D01*
X510170Y44642D01*
X510364Y44573D01*
X510392Y44559D01*
X510447Y44531D01*
X510544Y44489D01*
X510655Y44420D01*
X510780Y44337D01*
X510905Y44240D01*
X511030Y44129D01*
X511141Y44004D01*
X511155Y43990D01*
X511182Y43948D01*
X511224Y43879D01*
X511279Y43782D01*
X511349Y43671D01*
X511404Y43532D01*
X511460Y43394D01*
X511501Y43227D01*
Y43213D01*
X511515Y43144D01*
X511543Y43047D01*
X511557Y42908D01*
X511585Y42742D01*
X511598Y42520D01*
X511612Y42284D01*
Y41993D01*
Y37680D01*
X509768D01*
Y41216D01*
Y41230D01*
Y41272D01*
Y41327D01*
Y41397D01*
Y41494D01*
Y41591D01*
X509754Y41827D01*
X509740Y42062D01*
X509712Y42312D01*
X509685Y42520D01*
X509671Y42603D01*
X509643Y42673D01*
Y42686D01*
X509615Y42728D01*
X509588Y42783D01*
X509546Y42867D01*
X509421Y43033D01*
X509352Y43116D01*
X509255Y43186D01*
X509241Y43200D01*
X509213Y43213D01*
X509158Y43241D01*
X509074Y43283D01*
X508977Y43324D01*
X508880Y43352D01*
X508755Y43366D01*
X508617Y43380D01*
X508534D01*
X508450Y43366D01*
X508339Y43352D01*
X508201Y43310D01*
X508062Y43269D01*
X507909Y43200D01*
X507757Y43116D01*
X507743Y43102D01*
X507701Y43075D01*
X507632Y43005D01*
X507549Y42936D01*
X507466Y42825D01*
X507382Y42714D01*
X507299Y42562D01*
X507244Y42409D01*
Y42395D01*
X507216Y42326D01*
X507202Y42215D01*
X507174Y42049D01*
X507160Y41951D01*
X507147Y41827D01*
X507133Y41702D01*
Y41549D01*
X507119Y41397D01*
X507105Y41216D01*
Y41022D01*
Y40814D01*
Y37680D01*
X505261D01*
Y44642D01*
X506966D01*
Y43616D01*
X506980Y43629D01*
X507008Y43671D01*
X507063Y43727D01*
X507133Y43796D01*
X507216Y43893D01*
X507327Y43990D01*
X507452Y44101D01*
X507590Y44212D01*
X507743Y44309D01*
X507923Y44420D01*
X508104Y44517D01*
X508312Y44614D01*
X508534Y44683D01*
X508755Y44739D01*
X509005Y44781D01*
X509255Y44794D01*
X509352D01*
X509477Y44781D01*
D02*
G37*
G36*
X520086Y45654D02*
X515440D01*
Y43380D01*
X519448D01*
Y41757D01*
X515440D01*
Y37680D01*
X513498D01*
Y47277D01*
X520086D01*
Y45654D01*
D02*
G37*
G36*
X503721Y45821D02*
X503707Y45807D01*
X503680Y45779D01*
X503638Y45737D01*
X503582Y45682D01*
X503513Y45599D01*
X503430Y45502D01*
X503333Y45391D01*
X503222Y45252D01*
X503111Y45100D01*
X502986Y44933D01*
X502847Y44753D01*
X502709Y44559D01*
X502570Y44337D01*
X502431Y44115D01*
X502279Y43865D01*
X502126Y43602D01*
X502112Y43588D01*
X502085Y43532D01*
X502043Y43463D01*
X501988Y43352D01*
X501932Y43227D01*
X501849Y43061D01*
X501766Y42881D01*
X501669Y42686D01*
X501572Y42464D01*
X501474Y42229D01*
X501363Y41979D01*
X501266Y41716D01*
X501072Y41147D01*
X500892Y40551D01*
Y40537D01*
X500878Y40481D01*
X500850Y40398D01*
X500823Y40273D01*
X500795Y40135D01*
X500767Y39982D01*
X500726Y39788D01*
X500684Y39594D01*
X500642Y39372D01*
X500615Y39150D01*
X500545Y38665D01*
X500504Y38165D01*
X500490Y37680D01*
X498715D01*
Y37708D01*
Y37763D01*
X498728Y37874D01*
Y38027D01*
X498742Y38207D01*
X498770Y38415D01*
X498798Y38665D01*
X498839Y38928D01*
X498881Y39219D01*
X498937Y39538D01*
X499006Y39871D01*
X499075Y40232D01*
X499172Y40592D01*
X499269Y40967D01*
X499394Y41341D01*
X499533Y41729D01*
X499547Y41757D01*
X499575Y41827D01*
X499616Y41937D01*
X499672Y42076D01*
X499755Y42256D01*
X499852Y42478D01*
X499963Y42714D01*
X500088Y42978D01*
X500226Y43255D01*
X500379Y43546D01*
X500545Y43865D01*
X500739Y44170D01*
X501142Y44822D01*
X501599Y45446D01*
X497425D01*
Y47152D01*
X503721D01*
Y45821D01*
D02*
G37*
G36*
X495927Y37680D02*
X494083D01*
Y39524D01*
X495927D01*
Y37680D01*
D02*
G37*
G36*
X491628Y41216D02*
X492821D01*
Y39608D01*
X491628D01*
Y37680D01*
X489853D01*
Y39608D01*
X485914D01*
Y41203D01*
X490075Y47318D01*
X491628D01*
Y41216D01*
D02*
G37*
G36*
X615658Y74170D02*
X615862Y74138D01*
X616098Y74091D01*
X616334Y74028D01*
X616585Y73949D01*
X616821Y73824D01*
X616853Y73808D01*
X616916Y73761D01*
X617026Y73682D01*
X617167Y73572D01*
X617309Y73415D01*
X617466Y73242D01*
X617607Y73038D01*
X617733Y72786D01*
X617749Y72770D01*
X617765Y72692D01*
X617796Y72566D01*
X617843Y72393D01*
X617890Y72173D01*
X617922Y71890D01*
X617938Y71544D01*
X617953Y71151D01*
Y66119D01*
X615862D01*
Y70616D01*
Y70632D01*
Y70663D01*
Y70726D01*
Y70805D01*
X615846Y71009D01*
X615831Y71245D01*
X615815Y71497D01*
X615768Y71748D01*
X615721Y71968D01*
X615673Y72047D01*
X615642Y72126D01*
X615626Y72141D01*
X615579Y72204D01*
X615516Y72267D01*
X615422Y72361D01*
X615296Y72440D01*
X615139Y72519D01*
X614950Y72566D01*
X614746Y72582D01*
X614667D01*
X614589Y72566D01*
X614478Y72550D01*
X614353Y72519D01*
X614211Y72471D01*
X614054Y72409D01*
X613913Y72314D01*
X613897Y72298D01*
X613850Y72267D01*
X613787Y72204D01*
X613708Y72110D01*
X613614Y72000D01*
X613519Y71874D01*
X613441Y71717D01*
X613362Y71528D01*
Y71497D01*
X613331Y71434D01*
X613315Y71308D01*
X613284Y71135D01*
X613252Y70899D01*
X613236Y70616D01*
X613205Y70286D01*
Y69893D01*
Y66119D01*
X611114D01*
Y70427D01*
Y70443D01*
Y70475D01*
Y70538D01*
Y70616D01*
Y70805D01*
X611098Y71041D01*
X611082Y71292D01*
X611067Y71528D01*
X611035Y71748D01*
X611004Y71843D01*
X610988Y71905D01*
Y71921D01*
X610972Y71968D01*
X610941Y72031D01*
X610910Y72094D01*
X610799Y72267D01*
X610721Y72346D01*
X610642Y72409D01*
X610626Y72424D01*
X610595Y72440D01*
X610548Y72471D01*
X610485Y72503D01*
X610391Y72534D01*
X610281Y72550D01*
X610155Y72582D01*
X609935D01*
X609840Y72566D01*
X609730Y72550D01*
X609589Y72519D01*
X609447Y72471D01*
X609306Y72409D01*
X609149Y72314D01*
X609133Y72298D01*
X609086Y72267D01*
X609023Y72204D01*
X608944Y72126D01*
X608850Y72016D01*
X608755Y71890D01*
X608677Y71733D01*
X608598Y71560D01*
Y71544D01*
X608567Y71465D01*
X608551Y71339D01*
X608520Y71182D01*
X608488Y70946D01*
X608473Y70679D01*
X608441Y70333D01*
Y69940D01*
Y66119D01*
X606350D01*
Y74012D01*
X608268D01*
Y72927D01*
X608284Y72943D01*
X608315Y72975D01*
X608378Y73038D01*
X608457Y73132D01*
X608551Y73226D01*
X608661Y73320D01*
X608803Y73446D01*
X608960Y73556D01*
X609133Y73666D01*
X609322Y73792D01*
X609730Y73997D01*
X609966Y74075D01*
X610202Y74138D01*
X610453Y74170D01*
X610721Y74185D01*
X610847D01*
X610988Y74170D01*
X611161Y74154D01*
X611366Y74107D01*
X611586Y74059D01*
X611806Y73981D01*
X612026Y73871D01*
X612057Y73855D01*
X612120Y73808D01*
X612230Y73745D01*
X612356Y73635D01*
X612497Y73493D01*
X612655Y73336D01*
X612812Y73132D01*
X612953Y72912D01*
X612985Y72943D01*
X613048Y73022D01*
X613142Y73132D01*
X613284Y73273D01*
X613457Y73431D01*
X613645Y73588D01*
X613850Y73745D01*
X614070Y73871D01*
X614101Y73886D01*
X614180Y73918D01*
X614306Y73965D01*
X614463Y74028D01*
X614651Y74091D01*
X614872Y74138D01*
X615107Y74170D01*
X615359Y74185D01*
X615500D01*
X615658Y74170D01*
D02*
G37*
G36*
X628739Y66119D02*
X626538D01*
Y70883D01*
X622245D01*
Y66119D01*
X620044D01*
Y77000D01*
X622245D01*
Y72723D01*
X626538D01*
Y77000D01*
X628739D01*
Y66119D01*
D02*
G37*
G36*
X602922D02*
X600831D01*
Y73997D01*
X600816Y73981D01*
X600784Y73949D01*
X600721Y73902D01*
X600627Y73824D01*
X600517Y73729D01*
X600391Y73635D01*
X600234Y73525D01*
X600061Y73399D01*
X599872Y73273D01*
X599668Y73148D01*
X599448Y73006D01*
X599212Y72880D01*
X598709Y72644D01*
X598143Y72424D01*
Y74311D01*
X598158D01*
X598174Y74327D01*
X598221Y74342D01*
X598284Y74358D01*
X598442Y74437D01*
X598662Y74531D01*
X598929Y74657D01*
X599228Y74830D01*
X599558Y75050D01*
X599904Y75301D01*
X599919Y75317D01*
X599951Y75333D01*
X599998Y75380D01*
X600061Y75443D01*
X600234Y75600D01*
X600423Y75805D01*
X600643Y76056D01*
X600863Y76371D01*
X601067Y76701D01*
X601224Y77063D01*
X602922D01*
Y66119D01*
D02*
G37*
G36*
X615658Y-65830D02*
X615862Y-65862D01*
X616098Y-65909D01*
X616334Y-65972D01*
X616585Y-66051D01*
X616821Y-66176D01*
X616853Y-66192D01*
X616916Y-66239D01*
X617026Y-66318D01*
X617167Y-66428D01*
X617309Y-66585D01*
X617466Y-66758D01*
X617607Y-66963D01*
X617733Y-67214D01*
X617749Y-67230D01*
X617765Y-67309D01*
X617796Y-67434D01*
X617843Y-67607D01*
X617890Y-67827D01*
X617922Y-68110D01*
X617938Y-68456D01*
X617953Y-68849D01*
Y-73881D01*
X615862D01*
Y-69384D01*
Y-69368D01*
Y-69337D01*
Y-69274D01*
Y-69195D01*
X615846Y-68991D01*
X615831Y-68755D01*
X615815Y-68503D01*
X615768Y-68252D01*
X615721Y-68032D01*
X615673Y-67953D01*
X615642Y-67874D01*
X615626Y-67859D01*
X615579Y-67796D01*
X615516Y-67733D01*
X615422Y-67639D01*
X615296Y-67560D01*
X615139Y-67481D01*
X614950Y-67434D01*
X614746Y-67418D01*
X614667D01*
X614589Y-67434D01*
X614478Y-67450D01*
X614353Y-67481D01*
X614211Y-67529D01*
X614054Y-67592D01*
X613913Y-67686D01*
X613897Y-67702D01*
X613850Y-67733D01*
X613787Y-67796D01*
X613708Y-67890D01*
X613614Y-68000D01*
X613519Y-68126D01*
X613441Y-68283D01*
X613362Y-68472D01*
Y-68503D01*
X613331Y-68566D01*
X613315Y-68692D01*
X613284Y-68865D01*
X613252Y-69101D01*
X613236Y-69384D01*
X613205Y-69714D01*
Y-70107D01*
Y-73881D01*
X611114D01*
Y-69573D01*
Y-69557D01*
Y-69525D01*
Y-69462D01*
Y-69384D01*
Y-69195D01*
X611098Y-68959D01*
X611082Y-68708D01*
X611067Y-68472D01*
X611035Y-68252D01*
X611004Y-68158D01*
X610988Y-68095D01*
Y-68079D01*
X610972Y-68032D01*
X610941Y-67969D01*
X610910Y-67906D01*
X610799Y-67733D01*
X610721Y-67654D01*
X610642Y-67592D01*
X610626Y-67576D01*
X610595Y-67560D01*
X610548Y-67529D01*
X610485Y-67497D01*
X610391Y-67466D01*
X610281Y-67450D01*
X610155Y-67418D01*
X609935D01*
X609840Y-67434D01*
X609730Y-67450D01*
X609589Y-67481D01*
X609447Y-67529D01*
X609306Y-67592D01*
X609149Y-67686D01*
X609133Y-67702D01*
X609086Y-67733D01*
X609023Y-67796D01*
X608944Y-67874D01*
X608850Y-67984D01*
X608755Y-68110D01*
X608677Y-68267D01*
X608598Y-68440D01*
Y-68456D01*
X608567Y-68535D01*
X608551Y-68661D01*
X608520Y-68818D01*
X608488Y-69054D01*
X608473Y-69321D01*
X608441Y-69667D01*
Y-70060D01*
Y-73881D01*
X606350D01*
Y-65988D01*
X608268D01*
Y-67073D01*
X608284Y-67057D01*
X608315Y-67025D01*
X608378Y-66963D01*
X608457Y-66868D01*
X608551Y-66774D01*
X608661Y-66680D01*
X608803Y-66554D01*
X608960Y-66444D01*
X609133Y-66334D01*
X609322Y-66208D01*
X609730Y-66003D01*
X609966Y-65925D01*
X610202Y-65862D01*
X610453Y-65830D01*
X610721Y-65815D01*
X610847D01*
X610988Y-65830D01*
X611161Y-65846D01*
X611366Y-65893D01*
X611586Y-65941D01*
X611806Y-66019D01*
X612026Y-66129D01*
X612057Y-66145D01*
X612120Y-66192D01*
X612230Y-66255D01*
X612356Y-66365D01*
X612497Y-66507D01*
X612655Y-66664D01*
X612812Y-66868D01*
X612953Y-67088D01*
X612985Y-67057D01*
X613048Y-66978D01*
X613142Y-66868D01*
X613284Y-66727D01*
X613457Y-66569D01*
X613645Y-66412D01*
X613850Y-66255D01*
X614070Y-66129D01*
X614101Y-66114D01*
X614180Y-66082D01*
X614306Y-66035D01*
X614463Y-65972D01*
X614651Y-65909D01*
X614872Y-65862D01*
X615107Y-65830D01*
X615359Y-65815D01*
X615500D01*
X615658Y-65830D01*
D02*
G37*
G36*
X628739Y-73881D02*
X626538D01*
Y-69117D01*
X622245D01*
Y-73881D01*
X620044D01*
Y-63000D01*
X622245D01*
Y-67277D01*
X626538D01*
Y-63000D01*
X628739D01*
Y-73881D01*
D02*
G37*
G36*
X602922D02*
X600831D01*
Y-66003D01*
X600816Y-66019D01*
X600784Y-66051D01*
X600721Y-66098D01*
X600627Y-66176D01*
X600517Y-66271D01*
X600391Y-66365D01*
X600234Y-66475D01*
X600061Y-66601D01*
X599872Y-66727D01*
X599668Y-66852D01*
X599448Y-66994D01*
X599212Y-67120D01*
X598709Y-67356D01*
X598143Y-67576D01*
Y-65689D01*
X598158D01*
X598174Y-65673D01*
X598221Y-65658D01*
X598284Y-65642D01*
X598442Y-65563D01*
X598662Y-65469D01*
X598929Y-65343D01*
X599228Y-65170D01*
X599558Y-64950D01*
X599904Y-64699D01*
X599919Y-64683D01*
X599951Y-64667D01*
X599998Y-64620D01*
X600061Y-64557D01*
X600234Y-64400D01*
X600423Y-64195D01*
X600643Y-63944D01*
X600863Y-63629D01*
X601067Y-63299D01*
X601224Y-62938D01*
X602922D01*
Y-73881D01*
D02*
G37*
G36*
X311658Y-65830D02*
X311862Y-65862D01*
X312098Y-65909D01*
X312334Y-65972D01*
X312585Y-66051D01*
X312821Y-66176D01*
X312853Y-66192D01*
X312915Y-66239D01*
X313026Y-66318D01*
X313167Y-66428D01*
X313309Y-66585D01*
X313466Y-66758D01*
X313607Y-66963D01*
X313733Y-67214D01*
X313749Y-67230D01*
X313764Y-67309D01*
X313796Y-67434D01*
X313843Y-67607D01*
X313890Y-67827D01*
X313922Y-68110D01*
X313937Y-68456D01*
X313953Y-68849D01*
Y-73881D01*
X311862D01*
Y-69384D01*
Y-69368D01*
Y-69337D01*
Y-69274D01*
Y-69195D01*
X311846Y-68991D01*
X311831Y-68755D01*
X311815Y-68503D01*
X311768Y-68252D01*
X311721Y-68032D01*
X311673Y-67953D01*
X311642Y-67874D01*
X311626Y-67859D01*
X311579Y-67796D01*
X311516Y-67733D01*
X311422Y-67639D01*
X311296Y-67560D01*
X311139Y-67481D01*
X310950Y-67434D01*
X310746Y-67418D01*
X310667D01*
X310589Y-67434D01*
X310478Y-67450D01*
X310353Y-67481D01*
X310211Y-67529D01*
X310054Y-67592D01*
X309912Y-67686D01*
X309897Y-67702D01*
X309850Y-67733D01*
X309787Y-67796D01*
X309708Y-67890D01*
X309614Y-68000D01*
X309519Y-68126D01*
X309441Y-68283D01*
X309362Y-68472D01*
Y-68503D01*
X309331Y-68566D01*
X309315Y-68692D01*
X309284Y-68865D01*
X309252Y-69101D01*
X309236Y-69384D01*
X309205Y-69714D01*
Y-70107D01*
Y-73881D01*
X307114D01*
Y-69573D01*
Y-69557D01*
Y-69525D01*
Y-69462D01*
Y-69384D01*
Y-69195D01*
X307098Y-68959D01*
X307082Y-68708D01*
X307067Y-68472D01*
X307035Y-68252D01*
X307004Y-68158D01*
X306988Y-68095D01*
Y-68079D01*
X306972Y-68032D01*
X306941Y-67969D01*
X306910Y-67906D01*
X306799Y-67733D01*
X306721Y-67654D01*
X306642Y-67592D01*
X306626Y-67576D01*
X306595Y-67560D01*
X306548Y-67529D01*
X306485Y-67497D01*
X306391Y-67466D01*
X306281Y-67450D01*
X306155Y-67418D01*
X305935D01*
X305840Y-67434D01*
X305730Y-67450D01*
X305589Y-67481D01*
X305447Y-67529D01*
X305306Y-67592D01*
X305149Y-67686D01*
X305133Y-67702D01*
X305086Y-67733D01*
X305023Y-67796D01*
X304944Y-67874D01*
X304850Y-67984D01*
X304755Y-68110D01*
X304677Y-68267D01*
X304598Y-68440D01*
Y-68456D01*
X304567Y-68535D01*
X304551Y-68661D01*
X304520Y-68818D01*
X304488Y-69054D01*
X304473Y-69321D01*
X304441Y-69667D01*
Y-70060D01*
Y-73881D01*
X302350D01*
Y-65988D01*
X304268D01*
Y-67073D01*
X304284Y-67057D01*
X304315Y-67025D01*
X304378Y-66963D01*
X304457Y-66868D01*
X304551Y-66774D01*
X304661Y-66680D01*
X304803Y-66554D01*
X304960Y-66444D01*
X305133Y-66334D01*
X305322Y-66208D01*
X305730Y-66003D01*
X305966Y-65925D01*
X306202Y-65862D01*
X306453Y-65830D01*
X306721Y-65815D01*
X306847D01*
X306988Y-65830D01*
X307161Y-65846D01*
X307365Y-65893D01*
X307586Y-65941D01*
X307806Y-66019D01*
X308026Y-66129D01*
X308057Y-66145D01*
X308120Y-66192D01*
X308230Y-66255D01*
X308356Y-66365D01*
X308498Y-66507D01*
X308655Y-66664D01*
X308812Y-66868D01*
X308953Y-67088D01*
X308985Y-67057D01*
X309048Y-66978D01*
X309142Y-66868D01*
X309284Y-66727D01*
X309457Y-66569D01*
X309645Y-66412D01*
X309850Y-66255D01*
X310070Y-66129D01*
X310101Y-66114D01*
X310180Y-66082D01*
X310306Y-66035D01*
X310463Y-65972D01*
X310651Y-65909D01*
X310872Y-65862D01*
X311107Y-65830D01*
X311359Y-65815D01*
X311500D01*
X311658Y-65830D01*
D02*
G37*
G36*
X324739Y-73881D02*
X322538D01*
Y-69117D01*
X318246D01*
Y-73881D01*
X316044D01*
Y-63000D01*
X318246D01*
Y-67277D01*
X322538D01*
Y-63000D01*
X324739D01*
Y-73881D01*
D02*
G37*
G36*
X298922D02*
X296831D01*
Y-66003D01*
X296816Y-66019D01*
X296784Y-66051D01*
X296721Y-66098D01*
X296627Y-66176D01*
X296517Y-66271D01*
X296391Y-66365D01*
X296234Y-66475D01*
X296061Y-66601D01*
X295872Y-66727D01*
X295668Y-66852D01*
X295448Y-66994D01*
X295212Y-67120D01*
X294709Y-67356D01*
X294143Y-67576D01*
Y-65689D01*
X294158D01*
X294174Y-65673D01*
X294221Y-65658D01*
X294284Y-65642D01*
X294442Y-65563D01*
X294662Y-65469D01*
X294929Y-65343D01*
X295228Y-65170D01*
X295558Y-64950D01*
X295904Y-64699D01*
X295919Y-64683D01*
X295951Y-64667D01*
X295998Y-64620D01*
X296061Y-64557D01*
X296234Y-64400D01*
X296423Y-64195D01*
X296643Y-63944D01*
X296863Y-63629D01*
X297067Y-63299D01*
X297224Y-62938D01*
X298922D01*
Y-73881D01*
D02*
G37*
G36*
X311658Y74170D02*
X311862Y74138D01*
X312098Y74091D01*
X312334Y74028D01*
X312585Y73949D01*
X312821Y73824D01*
X312853Y73808D01*
X312915Y73761D01*
X313026Y73682D01*
X313167Y73572D01*
X313309Y73415D01*
X313466Y73242D01*
X313607Y73038D01*
X313733Y72786D01*
X313749Y72770D01*
X313764Y72692D01*
X313796Y72566D01*
X313843Y72393D01*
X313890Y72173D01*
X313922Y71890D01*
X313937Y71544D01*
X313953Y71151D01*
Y66119D01*
X311862D01*
Y70616D01*
Y70632D01*
Y70663D01*
Y70726D01*
Y70805D01*
X311846Y71009D01*
X311831Y71245D01*
X311815Y71497D01*
X311768Y71748D01*
X311721Y71968D01*
X311673Y72047D01*
X311642Y72126D01*
X311626Y72141D01*
X311579Y72204D01*
X311516Y72267D01*
X311422Y72361D01*
X311296Y72440D01*
X311139Y72519D01*
X310950Y72566D01*
X310746Y72582D01*
X310667D01*
X310589Y72566D01*
X310478Y72550D01*
X310353Y72519D01*
X310211Y72471D01*
X310054Y72409D01*
X309912Y72314D01*
X309897Y72298D01*
X309850Y72267D01*
X309787Y72204D01*
X309708Y72110D01*
X309614Y72000D01*
X309519Y71874D01*
X309441Y71717D01*
X309362Y71528D01*
Y71497D01*
X309331Y71434D01*
X309315Y71308D01*
X309284Y71135D01*
X309252Y70899D01*
X309236Y70616D01*
X309205Y70286D01*
Y69893D01*
Y66119D01*
X307114D01*
Y70427D01*
Y70443D01*
Y70475D01*
Y70538D01*
Y70616D01*
Y70805D01*
X307098Y71041D01*
X307082Y71292D01*
X307067Y71528D01*
X307035Y71748D01*
X307004Y71843D01*
X306988Y71905D01*
Y71921D01*
X306972Y71968D01*
X306941Y72031D01*
X306910Y72094D01*
X306799Y72267D01*
X306721Y72346D01*
X306642Y72409D01*
X306626Y72424D01*
X306595Y72440D01*
X306548Y72471D01*
X306485Y72503D01*
X306391Y72534D01*
X306281Y72550D01*
X306155Y72582D01*
X305935D01*
X305840Y72566D01*
X305730Y72550D01*
X305589Y72519D01*
X305447Y72471D01*
X305306Y72409D01*
X305149Y72314D01*
X305133Y72298D01*
X305086Y72267D01*
X305023Y72204D01*
X304944Y72126D01*
X304850Y72016D01*
X304755Y71890D01*
X304677Y71733D01*
X304598Y71560D01*
Y71544D01*
X304567Y71465D01*
X304551Y71339D01*
X304520Y71182D01*
X304488Y70946D01*
X304473Y70679D01*
X304441Y70333D01*
Y69940D01*
Y66119D01*
X302350D01*
Y74012D01*
X304268D01*
Y72927D01*
X304284Y72943D01*
X304315Y72975D01*
X304378Y73038D01*
X304457Y73132D01*
X304551Y73226D01*
X304661Y73320D01*
X304803Y73446D01*
X304960Y73556D01*
X305133Y73666D01*
X305322Y73792D01*
X305730Y73997D01*
X305966Y74075D01*
X306202Y74138D01*
X306453Y74170D01*
X306721Y74185D01*
X306847D01*
X306988Y74170D01*
X307161Y74154D01*
X307365Y74107D01*
X307586Y74059D01*
X307806Y73981D01*
X308026Y73871D01*
X308057Y73855D01*
X308120Y73808D01*
X308230Y73745D01*
X308356Y73635D01*
X308498Y73493D01*
X308655Y73336D01*
X308812Y73132D01*
X308953Y72912D01*
X308985Y72943D01*
X309048Y73022D01*
X309142Y73132D01*
X309284Y73273D01*
X309457Y73431D01*
X309645Y73588D01*
X309850Y73745D01*
X310070Y73871D01*
X310101Y73886D01*
X310180Y73918D01*
X310306Y73965D01*
X310463Y74028D01*
X310651Y74091D01*
X310872Y74138D01*
X311107Y74170D01*
X311359Y74185D01*
X311500D01*
X311658Y74170D01*
D02*
G37*
G36*
X324739Y66119D02*
X322538D01*
Y70883D01*
X318246D01*
Y66119D01*
X316044D01*
Y77000D01*
X318246D01*
Y72723D01*
X322538D01*
Y77000D01*
X324739D01*
Y66119D01*
D02*
G37*
G36*
X298922D02*
X296831D01*
Y73997D01*
X296816Y73981D01*
X296784Y73949D01*
X296721Y73902D01*
X296627Y73824D01*
X296517Y73729D01*
X296391Y73635D01*
X296234Y73525D01*
X296061Y73399D01*
X295872Y73273D01*
X295668Y73148D01*
X295448Y73006D01*
X295212Y72880D01*
X294709Y72644D01*
X294143Y72424D01*
Y74311D01*
X294158D01*
X294174Y74327D01*
X294221Y74342D01*
X294284Y74358D01*
X294442Y74437D01*
X294662Y74531D01*
X294929Y74657D01*
X295228Y74830D01*
X295558Y75050D01*
X295904Y75301D01*
X295919Y75317D01*
X295951Y75333D01*
X295998Y75380D01*
X296061Y75443D01*
X296234Y75600D01*
X296423Y75805D01*
X296643Y76056D01*
X296863Y76371D01*
X297067Y76701D01*
X297224Y77063D01*
X298922D01*
Y66119D01*
D02*
G37*
G36*
X861640Y119862D02*
X859549D01*
Y121796D01*
X861640D01*
Y119862D01*
D02*
G37*
G36*
X795290Y121984D02*
X795463Y121969D01*
X795652Y121937D01*
X795872Y121906D01*
X796108Y121859D01*
X796359Y121796D01*
X796627Y121717D01*
X796894Y121623D01*
X797177Y121497D01*
X797444Y121371D01*
X797696Y121214D01*
X797963Y121025D01*
X798199Y120821D01*
X798215D01*
X798230Y120789D01*
X798278Y120742D01*
X798325Y120695D01*
X798388Y120616D01*
X798450Y120522D01*
X798624Y120302D01*
X798796Y120019D01*
X798985Y119673D01*
X799158Y119280D01*
X799315Y118824D01*
X797146Y118305D01*
Y118321D01*
X797130Y118337D01*
Y118384D01*
X797098Y118447D01*
X797051Y118588D01*
X796973Y118777D01*
X796863Y118997D01*
X796721Y119217D01*
X796532Y119437D01*
X796328Y119626D01*
X796297Y119642D01*
X796218Y119705D01*
X796092Y119783D01*
X795919Y119878D01*
X795699Y119972D01*
X795447Y120050D01*
X795164Y120113D01*
X794850Y120129D01*
X794740D01*
X794646Y120113D01*
X794551Y120098D01*
X794426Y120082D01*
X794158Y120019D01*
X793844Y119909D01*
X793514Y119752D01*
X793341Y119657D01*
X793184Y119547D01*
X793026Y119406D01*
X792885Y119249D01*
Y119233D01*
X792853Y119201D01*
X792822Y119154D01*
X792775Y119076D01*
X792712Y118981D01*
X792649Y118871D01*
X792586Y118730D01*
X792523Y118573D01*
X792445Y118384D01*
X792382Y118179D01*
X792319Y117944D01*
X792256Y117692D01*
X792209Y117409D01*
X792177Y117110D01*
X792161Y116780D01*
X792146Y116419D01*
Y116403D01*
Y116324D01*
Y116214D01*
X792161Y116088D01*
Y115915D01*
X792193Y115711D01*
X792209Y115507D01*
X792240Y115271D01*
X792335Y114783D01*
X792460Y114296D01*
X792539Y114060D01*
X792649Y113840D01*
X792759Y113636D01*
X792885Y113463D01*
X792900Y113447D01*
X792916Y113431D01*
X792963Y113384D01*
X793026Y113321D01*
X793184Y113195D01*
X793404Y113038D01*
X793671Y112865D01*
X794001Y112739D01*
X794378Y112629D01*
X794583Y112614D01*
X794803Y112598D01*
X794882D01*
X794944Y112614D01*
X795117Y112629D01*
X795322Y112661D01*
X795542Y112739D01*
X795793Y112834D01*
X796045Y112959D01*
X796297Y113148D01*
X796328Y113180D01*
X796407Y113258D01*
X796517Y113384D01*
X796643Y113573D01*
X796800Y113824D01*
X796941Y114123D01*
X797083Y114485D01*
X797208Y114909D01*
X799347Y114249D01*
Y114233D01*
X799331Y114170D01*
X799300Y114076D01*
X799252Y113950D01*
X799190Y113808D01*
X799127Y113636D01*
X799048Y113447D01*
X798954Y113243D01*
X798734Y112818D01*
X798450Y112378D01*
X798105Y111953D01*
X797916Y111765D01*
X797712Y111592D01*
X797696Y111576D01*
X797664Y111560D01*
X797601Y111513D01*
X797507Y111450D01*
X797397Y111387D01*
X797256Y111324D01*
X797098Y111246D01*
X796926Y111167D01*
X796721Y111073D01*
X796501Y110994D01*
X796265Y110931D01*
X796013Y110868D01*
X795746Y110806D01*
X795447Y110758D01*
X795149Y110743D01*
X794819Y110727D01*
X794724D01*
X794614Y110743D01*
X794457Y110758D01*
X794284Y110774D01*
X794064Y110806D01*
X793828Y110853D01*
X793561Y110916D01*
X793294Y110994D01*
X793010Y111088D01*
X792712Y111214D01*
X792413Y111356D01*
X792114Y111513D01*
X791816Y111717D01*
X791533Y111938D01*
X791265Y112205D01*
X791250Y112221D01*
X791202Y112268D01*
X791140Y112362D01*
X791045Y112472D01*
X790951Y112629D01*
X790825Y112802D01*
X790699Y113022D01*
X790574Y113274D01*
X790448Y113541D01*
X790322Y113840D01*
X790196Y114186D01*
X790102Y114548D01*
X790007Y114925D01*
X789945Y115349D01*
X789898Y115790D01*
X789882Y116261D01*
Y116277D01*
Y116293D01*
Y116387D01*
X789898Y116529D01*
Y116717D01*
X789929Y116937D01*
X789960Y117205D01*
X789992Y117488D01*
X790055Y117818D01*
X790133Y118148D01*
X790228Y118494D01*
X790338Y118840D01*
X790479Y119201D01*
X790636Y119547D01*
X790825Y119878D01*
X791030Y120192D01*
X791281Y120491D01*
X791297Y120506D01*
X791344Y120554D01*
X791423Y120632D01*
X791533Y120726D01*
X791674Y120836D01*
X791847Y120962D01*
X792036Y121104D01*
X792272Y121245D01*
X792523Y121387D01*
X792790Y121528D01*
X793105Y121654D01*
X793419Y121764D01*
X793781Y121859D01*
X794143Y121937D01*
X794551Y121984D01*
X794960Y122000D01*
X795149D01*
X795290Y121984D01*
D02*
G37*
G36*
X885428Y118966D02*
X885601Y118934D01*
X885821Y118887D01*
X886057Y118808D01*
X886293Y118714D01*
X886544Y118573D01*
X885884Y116764D01*
X885868Y116780D01*
X885790Y116812D01*
X885695Y116875D01*
X885570Y116937D01*
X885412Y117000D01*
X885255Y117063D01*
X885082Y117095D01*
X884909Y117110D01*
X884846D01*
X884752Y117095D01*
X884658Y117079D01*
X884548Y117047D01*
X884422Y117000D01*
X884296Y116937D01*
X884170Y116859D01*
X884154Y116843D01*
X884123Y116812D01*
X884060Y116749D01*
X883997Y116654D01*
X883919Y116544D01*
X883840Y116387D01*
X883761Y116198D01*
X883699Y115978D01*
Y115947D01*
X883683Y115900D01*
X883667Y115852D01*
Y115774D01*
X883651Y115680D01*
X883636Y115554D01*
X883620Y115412D01*
X883604Y115255D01*
X883588Y115051D01*
X883573Y114846D01*
Y114595D01*
X883557Y114327D01*
X883541Y114029D01*
Y113699D01*
Y113337D01*
Y110916D01*
X881450D01*
Y118808D01*
X883384D01*
Y117692D01*
X883400Y117708D01*
X883463Y117802D01*
X883557Y117944D01*
X883683Y118117D01*
X883809Y118289D01*
X883966Y118462D01*
X884107Y118620D01*
X884265Y118730D01*
X884280Y118745D01*
X884327Y118777D01*
X884422Y118808D01*
X884532Y118855D01*
X884658Y118903D01*
X884815Y118950D01*
X884972Y118966D01*
X885161Y118981D01*
X885286D01*
X885428Y118966D01*
D02*
G37*
G36*
X825635Y118966D02*
X825792Y118950D01*
X825965Y118934D01*
X826154Y118918D01*
X826547Y118855D01*
X826940Y118761D01*
X827317Y118620D01*
X827490Y118541D01*
X827647Y118447D01*
X827663D01*
X827679Y118415D01*
X827773Y118352D01*
X827915Y118227D01*
X828072Y118054D01*
X828261Y117849D01*
X828434Y117582D01*
X828606Y117268D01*
X828732Y116906D01*
X826767Y116544D01*
Y116560D01*
X826736Y116623D01*
X826704Y116701D01*
X826657Y116796D01*
X826594Y116922D01*
X826500Y117032D01*
X826405Y117142D01*
X826280Y117236D01*
X826264Y117252D01*
X826217Y117283D01*
X826138Y117315D01*
X826028Y117362D01*
X825887Y117409D01*
X825714Y117456D01*
X825509Y117472D01*
X825273Y117488D01*
X825132D01*
X824990Y117472D01*
X824817Y117456D01*
X824613Y117425D01*
X824424Y117393D01*
X824251Y117330D01*
X824094Y117252D01*
X824078D01*
X824063Y117220D01*
X823984Y117142D01*
X823890Y117000D01*
X823874Y116922D01*
X823858Y116827D01*
Y116812D01*
Y116796D01*
X823890Y116701D01*
X823953Y116576D01*
X824000Y116513D01*
X824063Y116450D01*
X824078Y116434D01*
X824141Y116419D01*
X824173Y116387D01*
X824236Y116371D01*
X824314Y116340D01*
X824409Y116293D01*
X824534Y116261D01*
X824660Y116214D01*
X824817Y116167D01*
X825006Y116120D01*
X825210Y116057D01*
X825446Y115994D01*
X825714Y115931D01*
X826012Y115852D01*
X826028D01*
X826091Y115837D01*
X826170Y115821D01*
X826280Y115790D01*
X826421Y115742D01*
X826578Y115711D01*
X826924Y115601D01*
X827317Y115459D01*
X827695Y115302D01*
X827883Y115208D01*
X828056Y115129D01*
X828198Y115019D01*
X828339Y114925D01*
X828371Y114893D01*
X828449Y114831D01*
X828544Y114705D01*
X828669Y114532D01*
X828795Y114312D01*
X828889Y114044D01*
X828968Y113730D01*
X829000Y113384D01*
Y113368D01*
Y113337D01*
Y113274D01*
X828984Y113195D01*
X828968Y113117D01*
X828952Y113007D01*
X828889Y112739D01*
X828779Y112456D01*
X828701Y112299D01*
X828622Y112142D01*
X828512Y111985D01*
X828386Y111827D01*
X828245Y111670D01*
X828088Y111513D01*
X828072Y111497D01*
X828040Y111482D01*
X827993Y111450D01*
X827915Y111387D01*
X827820Y111340D01*
X827710Y111277D01*
X827569Y111199D01*
X827412Y111136D01*
X827239Y111057D01*
X827034Y110994D01*
X826814Y110916D01*
X826578Y110868D01*
X826311Y110821D01*
X826028Y110774D01*
X825729Y110758D01*
X825415Y110743D01*
X825258D01*
X825147Y110758D01*
X825006D01*
X824849Y110774D01*
X824676Y110790D01*
X824487Y110821D01*
X824078Y110900D01*
X823654Y111010D01*
X823229Y111167D01*
X823041Y111277D01*
X822852Y111387D01*
X822836Y111403D01*
X822805Y111419D01*
X822758Y111450D01*
X822710Y111513D01*
X822538Y111655D01*
X822349Y111859D01*
X822144Y112111D01*
X821956Y112409D01*
X821783Y112771D01*
X821641Y113164D01*
X823733Y113478D01*
Y113447D01*
X823764Y113384D01*
X823795Y113274D01*
X823842Y113132D01*
X823921Y112975D01*
X824016Y112834D01*
X824126Y112676D01*
X824267Y112551D01*
X824283Y112535D01*
X824346Y112504D01*
X824440Y112456D01*
X824566Y112409D01*
X824723Y112346D01*
X824927Y112299D01*
X825147Y112268D01*
X825415Y112252D01*
X825541D01*
X825698Y112268D01*
X825871Y112283D01*
X826059Y112315D01*
X826264Y112378D01*
X826452Y112441D01*
X826625Y112535D01*
X826641Y112551D01*
X826673Y112582D01*
X826720Y112629D01*
X826767Y112692D01*
X826814Y112771D01*
X826861Y112865D01*
X826893Y112975D01*
X826908Y113101D01*
Y113117D01*
Y113148D01*
X826893Y113243D01*
X826846Y113368D01*
X826751Y113494D01*
X826720Y113525D01*
X826673Y113541D01*
X826610Y113588D01*
X826515Y113620D01*
X826390Y113667D01*
X826248Y113714D01*
X826059Y113761D01*
X826028D01*
X825949Y113793D01*
X825824Y113824D01*
X825651Y113856D01*
X825446Y113903D01*
X825226Y113966D01*
X824975Y114029D01*
X824707Y114107D01*
X824157Y114264D01*
X823890Y114343D01*
X823638Y114437D01*
X823402Y114516D01*
X823182Y114610D01*
X822993Y114705D01*
X822852Y114783D01*
X822836Y114799D01*
X822805Y114815D01*
X822773Y114846D01*
X822710Y114909D01*
X822553Y115051D01*
X822396Y115255D01*
X822223Y115507D01*
X822066Y115805D01*
X822003Y115978D01*
X821972Y116167D01*
X821940Y116356D01*
X821924Y116560D01*
Y116576D01*
Y116607D01*
Y116654D01*
X821940Y116733D01*
X821956Y116812D01*
X821972Y116922D01*
X822019Y117157D01*
X822113Y117425D01*
X822270Y117708D01*
X822349Y117865D01*
X822459Y118006D01*
X822585Y118148D01*
X822726Y118274D01*
X822742Y118289D01*
X822758Y118305D01*
X822805Y118337D01*
X822884Y118384D01*
X822962Y118431D01*
X823072Y118494D01*
X823198Y118557D01*
X823339Y118635D01*
X823512Y118698D01*
X823701Y118761D01*
X823905Y118824D01*
X824126Y118871D01*
X824377Y118918D01*
X824644Y118950D01*
X824927Y118981D01*
X825509D01*
X825635Y118966D01*
D02*
G37*
G36*
X817176D02*
X817333Y118950D01*
X817506Y118934D01*
X817695Y118918D01*
X818088Y118855D01*
X818481Y118761D01*
X818858Y118620D01*
X819031Y118541D01*
X819189Y118447D01*
X819204D01*
X819220Y118415D01*
X819314Y118352D01*
X819456Y118227D01*
X819613Y118054D01*
X819802Y117849D01*
X819975Y117582D01*
X820148Y117268D01*
X820274Y116906D01*
X818308Y116544D01*
Y116560D01*
X818277Y116623D01*
X818245Y116701D01*
X818198Y116796D01*
X818135Y116922D01*
X818041Y117032D01*
X817947Y117142D01*
X817821Y117236D01*
X817805Y117252D01*
X817758Y117283D01*
X817679Y117315D01*
X817569Y117362D01*
X817428Y117409D01*
X817255Y117456D01*
X817050Y117472D01*
X816814Y117488D01*
X816673D01*
X816532Y117472D01*
X816359Y117456D01*
X816154Y117425D01*
X815965Y117393D01*
X815793Y117330D01*
X815635Y117252D01*
X815620D01*
X815604Y117220D01*
X815525Y117142D01*
X815431Y117000D01*
X815415Y116922D01*
X815399Y116827D01*
Y116812D01*
Y116796D01*
X815431Y116701D01*
X815494Y116576D01*
X815541Y116513D01*
X815604Y116450D01*
X815620Y116434D01*
X815683Y116419D01*
X815714Y116387D01*
X815777Y116371D01*
X815855Y116340D01*
X815950Y116293D01*
X816076Y116261D01*
X816201Y116214D01*
X816359Y116167D01*
X816547Y116120D01*
X816752Y116057D01*
X816988Y115994D01*
X817255Y115931D01*
X817553Y115852D01*
X817569D01*
X817632Y115837D01*
X817711Y115821D01*
X817821Y115790D01*
X817962Y115742D01*
X818120Y115711D01*
X818465Y115601D01*
X818858Y115459D01*
X819236Y115302D01*
X819425Y115208D01*
X819597Y115129D01*
X819739Y115019D01*
X819881Y114925D01*
X819912Y114893D01*
X819990Y114831D01*
X820085Y114705D01*
X820211Y114532D01*
X820336Y114312D01*
X820431Y114044D01*
X820509Y113730D01*
X820541Y113384D01*
Y113368D01*
Y113337D01*
Y113274D01*
X820525Y113195D01*
X820509Y113117D01*
X820494Y113007D01*
X820431Y112739D01*
X820321Y112456D01*
X820242Y112299D01*
X820163Y112142D01*
X820053Y111985D01*
X819928Y111827D01*
X819786Y111670D01*
X819629Y111513D01*
X819613Y111497D01*
X819582Y111482D01*
X819535Y111450D01*
X819456Y111387D01*
X819362Y111340D01*
X819251Y111277D01*
X819110Y111199D01*
X818953Y111136D01*
X818780Y111057D01*
X818576Y110994D01*
X818355Y110916D01*
X818120Y110868D01*
X817852Y110821D01*
X817569Y110774D01*
X817271Y110758D01*
X816956Y110743D01*
X816799D01*
X816689Y110758D01*
X816547D01*
X816390Y110774D01*
X816217Y110790D01*
X816028Y110821D01*
X815620Y110900D01*
X815195Y111010D01*
X814771Y111167D01*
X814582Y111277D01*
X814393Y111387D01*
X814378Y111403D01*
X814346Y111419D01*
X814299Y111450D01*
X814252Y111513D01*
X814079Y111655D01*
X813890Y111859D01*
X813686Y112111D01*
X813497Y112409D01*
X813324Y112771D01*
X813183Y113164D01*
X815274Y113478D01*
Y113447D01*
X815305Y113384D01*
X815337Y113274D01*
X815384Y113132D01*
X815462Y112975D01*
X815557Y112834D01*
X815667Y112676D01*
X815808Y112551D01*
X815824Y112535D01*
X815887Y112504D01*
X815981Y112456D01*
X816107Y112409D01*
X816264Y112346D01*
X816469Y112299D01*
X816689Y112268D01*
X816956Y112252D01*
X817082D01*
X817239Y112268D01*
X817412Y112283D01*
X817601Y112315D01*
X817805Y112378D01*
X817994Y112441D01*
X818167Y112535D01*
X818182Y112551D01*
X818214Y112582D01*
X818261Y112629D01*
X818308Y112692D01*
X818355Y112771D01*
X818402Y112865D01*
X818434Y112975D01*
X818450Y113101D01*
Y113117D01*
Y113148D01*
X818434Y113243D01*
X818387Y113368D01*
X818292Y113494D01*
X818261Y113525D01*
X818214Y113541D01*
X818151Y113588D01*
X818057Y113620D01*
X817931Y113667D01*
X817789Y113714D01*
X817601Y113761D01*
X817569D01*
X817491Y113793D01*
X817365Y113824D01*
X817192Y113856D01*
X816988Y113903D01*
X816767Y113966D01*
X816516Y114029D01*
X816248Y114107D01*
X815698Y114264D01*
X815431Y114343D01*
X815179Y114437D01*
X814944Y114516D01*
X814723Y114610D01*
X814535Y114705D01*
X814393Y114783D01*
X814378Y114799D01*
X814346Y114815D01*
X814315Y114846D01*
X814252Y114909D01*
X814094Y115051D01*
X813937Y115255D01*
X813764Y115507D01*
X813607Y115805D01*
X813544Y115978D01*
X813513Y116167D01*
X813481Y116356D01*
X813466Y116560D01*
Y116576D01*
Y116607D01*
Y116654D01*
X813481Y116733D01*
X813497Y116812D01*
X813513Y116922D01*
X813560Y117157D01*
X813654Y117425D01*
X813811Y117708D01*
X813890Y117865D01*
X814000Y118006D01*
X814126Y118148D01*
X814268Y118274D01*
X814283Y118289D01*
X814299Y118305D01*
X814346Y118337D01*
X814425Y118384D01*
X814503Y118431D01*
X814613Y118494D01*
X814739Y118557D01*
X814881Y118635D01*
X815054Y118698D01*
X815242Y118761D01*
X815447Y118824D01*
X815667Y118871D01*
X815918Y118918D01*
X816186Y118950D01*
X816469Y118981D01*
X817050D01*
X817176Y118966D01*
D02*
G37*
G36*
X896858Y110916D02*
X894484D01*
X890585Y121796D01*
X892959D01*
X895726Y113746D01*
X898383Y121796D01*
X900726D01*
X896858Y110916D01*
D02*
G37*
G36*
X912361D02*
X910270D01*
Y113007D01*
X912361D01*
Y110916D01*
D02*
G37*
G36*
X906701D02*
X904610D01*
Y118793D01*
X904594Y118777D01*
X904562Y118745D01*
X904500Y118698D01*
X904405Y118620D01*
X904295Y118525D01*
X904169Y118431D01*
X904012Y118321D01*
X903839Y118195D01*
X903651Y118069D01*
X903446Y117944D01*
X903226Y117802D01*
X902990Y117676D01*
X902487Y117441D01*
X901921Y117220D01*
Y119107D01*
X901937D01*
X901952Y119123D01*
X902000Y119138D01*
X902063Y119154D01*
X902220Y119233D01*
X902440Y119327D01*
X902707Y119453D01*
X903006Y119626D01*
X903336Y119846D01*
X903682Y120098D01*
X903698Y120113D01*
X903729Y120129D01*
X903776Y120176D01*
X903839Y120239D01*
X904012Y120396D01*
X904201Y120601D01*
X904421Y120852D01*
X904641Y121167D01*
X904845Y121497D01*
X905003Y121859D01*
X906701D01*
Y110916D01*
D02*
G37*
G36*
X865869D02*
X863778D01*
Y121796D01*
X865869D01*
Y110916D01*
D02*
G37*
G36*
X861640Y110916D02*
X859549D01*
Y118808D01*
X861640D01*
Y110916D01*
D02*
G37*
G36*
X857756Y119956D02*
X852489D01*
Y117378D01*
X857033D01*
Y115538D01*
X852489D01*
Y110916D01*
X850288D01*
Y121796D01*
X857756D01*
Y119956D01*
D02*
G37*
G36*
X839549Y121780D02*
X839848Y121764D01*
X840178Y121748D01*
X840524Y121701D01*
X840854Y121654D01*
X841153Y121575D01*
X841169D01*
X841200Y121560D01*
X841247Y121544D01*
X841310Y121528D01*
X841499Y121450D01*
X841719Y121340D01*
X841971Y121198D01*
X842254Y121025D01*
X842521Y120821D01*
X842788Y120569D01*
X842804D01*
X842820Y120538D01*
X842898Y120443D01*
X843024Y120286D01*
X843166Y120082D01*
X843339Y119830D01*
X843512Y119532D01*
X843684Y119186D01*
X843826Y118808D01*
Y118793D01*
X843842Y118761D01*
X843857Y118698D01*
X843889Y118620D01*
X843905Y118525D01*
X843936Y118399D01*
X843968Y118258D01*
X844015Y118101D01*
X844046Y117928D01*
X844078Y117724D01*
X844109Y117519D01*
X844125Y117283D01*
X844172Y116796D01*
X844188Y116245D01*
Y116230D01*
Y116183D01*
Y116120D01*
Y116025D01*
X844172Y115900D01*
Y115774D01*
X844156Y115617D01*
X844140Y115444D01*
X844109Y115082D01*
X844046Y114705D01*
X843952Y114312D01*
X843842Y113934D01*
Y113919D01*
X843826Y113887D01*
X843794Y113824D01*
X843763Y113730D01*
X843732Y113636D01*
X843669Y113525D01*
X843543Y113243D01*
X843386Y112944D01*
X843181Y112614D01*
X842945Y112299D01*
X842678Y112000D01*
X842647Y111969D01*
X842568Y111906D01*
X842442Y111812D01*
X842269Y111686D01*
X842049Y111545D01*
X841798Y111403D01*
X841483Y111262D01*
X841137Y111136D01*
X841122D01*
X841106Y111120D01*
X841059D01*
X841012Y111104D01*
X840839Y111073D01*
X840619Y111026D01*
X840351Y110978D01*
X840021Y110947D01*
X839628Y110931D01*
X839203Y110916D01*
X835084D01*
Y121796D01*
X839424D01*
X839549Y121780D01*
D02*
G37*
G36*
X808875Y118966D02*
X809000D01*
X809315Y118934D01*
X809645Y118903D01*
X809991Y118840D01*
X810321Y118745D01*
X810463Y118698D01*
X810604Y118635D01*
X810620D01*
X810636Y118620D01*
X810714Y118573D01*
X810840Y118510D01*
X810982Y118415D01*
X811154Y118289D01*
X811312Y118148D01*
X811453Y117975D01*
X811579Y117802D01*
X811595Y117771D01*
X811626Y117708D01*
X811673Y117566D01*
X811689Y117488D01*
X811720Y117378D01*
X811752Y117268D01*
X811768Y117126D01*
X811799Y116969D01*
X811815Y116796D01*
X811831Y116607D01*
X811846Y116403D01*
X811862Y116183D01*
Y115931D01*
X811831Y113494D01*
Y113478D01*
Y113447D01*
Y113400D01*
Y113321D01*
Y113132D01*
X811846Y112912D01*
Y112661D01*
X811878Y112409D01*
X811893Y112158D01*
X811925Y111953D01*
Y111938D01*
X811941Y111875D01*
X811972Y111765D01*
X812003Y111639D01*
X812066Y111482D01*
X812129Y111309D01*
X812208Y111120D01*
X812302Y110916D01*
X810242D01*
Y110931D01*
X810227Y110947D01*
X810211Y111010D01*
X810180Y111073D01*
X810148Y111151D01*
X810117Y111262D01*
X810085Y111387D01*
X810038Y111529D01*
Y111545D01*
X810022Y111560D01*
X810007Y111623D01*
X809975Y111702D01*
X809959Y111765D01*
X809928Y111749D01*
X809865Y111686D01*
X809755Y111592D01*
X809614Y111482D01*
X809441Y111356D01*
X809252Y111214D01*
X809032Y111104D01*
X808812Y110994D01*
X808780Y110978D01*
X808702Y110963D01*
X808576Y110916D01*
X808419Y110868D01*
X808230Y110821D01*
X808010Y110790D01*
X807758Y110758D01*
X807507Y110743D01*
X807397D01*
X807302Y110758D01*
X807208D01*
X807082Y110774D01*
X806815Y110821D01*
X806500Y110900D01*
X806186Y111010D01*
X805872Y111167D01*
X805589Y111387D01*
Y111403D01*
X805557Y111419D01*
X805479Y111513D01*
X805368Y111655D01*
X805243Y111843D01*
X805117Y112079D01*
X805007Y112362D01*
X804928Y112692D01*
X804912Y112865D01*
X804897Y113054D01*
Y113085D01*
Y113164D01*
X804912Y113290D01*
X804944Y113447D01*
X804975Y113636D01*
X805023Y113824D01*
X805101Y114029D01*
X805211Y114233D01*
X805227Y114264D01*
X805274Y114327D01*
X805337Y114422D01*
X805447Y114532D01*
X805557Y114658D01*
X805714Y114799D01*
X805887Y114925D01*
X806092Y115035D01*
X806123Y115051D01*
X806202Y115082D01*
X806328Y115129D01*
X806516Y115208D01*
X806752Y115287D01*
X807035Y115365D01*
X807381Y115444D01*
X807758Y115522D01*
X807774D01*
X807821Y115538D01*
X807900Y115554D01*
X807994Y115569D01*
X808120Y115585D01*
X808261Y115617D01*
X808576Y115695D01*
X808906Y115774D01*
X809252Y115852D01*
X809551Y115947D01*
X809692Y115994D01*
X809802Y116041D01*
Y116245D01*
Y116277D01*
Y116340D01*
X809787Y116450D01*
X809771Y116591D01*
X809724Y116733D01*
X809677Y116874D01*
X809598Y117000D01*
X809488Y117110D01*
X809472Y117126D01*
X809425Y117157D01*
X809346Y117189D01*
X809236Y117252D01*
X809079Y117299D01*
X808890Y117330D01*
X808654Y117362D01*
X808372Y117378D01*
X808277D01*
X808183Y117362D01*
X808057Y117346D01*
X807916Y117315D01*
X807758Y117283D01*
X807617Y117220D01*
X807491Y117142D01*
X807475Y117126D01*
X807444Y117095D01*
X807381Y117047D01*
X807318Y116969D01*
X807224Y116859D01*
X807145Y116717D01*
X807066Y116560D01*
X806988Y116371D01*
X805117Y116717D01*
Y116733D01*
X805133Y116764D01*
X805148Y116827D01*
X805180Y116906D01*
X805211Y117000D01*
X805258Y117110D01*
X805368Y117362D01*
X805526Y117629D01*
X805714Y117912D01*
X805935Y118179D01*
X806202Y118415D01*
X806217D01*
X806233Y118447D01*
X806280Y118462D01*
X806343Y118510D01*
X806438Y118541D01*
X806532Y118588D01*
X806658Y118651D01*
X806784Y118698D01*
X806941Y118745D01*
X807114Y118808D01*
X807302Y118855D01*
X807523Y118887D01*
X807743Y118934D01*
X807994Y118950D01*
X808246Y118981D01*
X808765D01*
X808875Y118966D01*
D02*
G37*
G36*
X803309Y110916D02*
X801218D01*
Y121796D01*
X803309D01*
Y110916D01*
D02*
G37*
G36*
X876372Y118966D02*
X876513Y118950D01*
X876686Y118918D01*
X876875Y118887D01*
X877079Y118840D01*
X877299Y118777D01*
X877520Y118698D01*
X877755Y118604D01*
X877991Y118478D01*
X878211Y118352D01*
X878431Y118195D01*
X878652Y118006D01*
X878840Y117802D01*
X878856Y117786D01*
X878887Y117755D01*
X878934Y117676D01*
X878997Y117582D01*
X879076Y117456D01*
X879155Y117315D01*
X879249Y117126D01*
X879343Y116922D01*
X879438Y116686D01*
X879532Y116419D01*
X879611Y116136D01*
X879689Y115805D01*
X879752Y115459D01*
X879799Y115082D01*
X879831Y114689D01*
Y114249D01*
X874611D01*
Y114233D01*
Y114202D01*
Y114155D01*
X874626Y114092D01*
X874642Y113934D01*
X874674Y113714D01*
X874737Y113494D01*
X874831Y113243D01*
X874941Y113007D01*
X875098Y112802D01*
X875114Y112787D01*
X875193Y112724D01*
X875287Y112645D01*
X875428Y112551D01*
X875601Y112456D01*
X875822Y112378D01*
X876057Y112315D01*
X876309Y112299D01*
X876387D01*
X876482Y112315D01*
X876592Y112331D01*
X876718Y112362D01*
X876859Y112409D01*
X877001Y112472D01*
X877126Y112566D01*
X877142Y112582D01*
X877189Y112614D01*
X877252Y112676D01*
X877315Y112771D01*
X877409Y112897D01*
X877488Y113038D01*
X877567Y113227D01*
X877645Y113431D01*
X879721Y113085D01*
Y113070D01*
X879705Y113038D01*
X879673Y112975D01*
X879642Y112897D01*
X879595Y112802D01*
X879548Y112692D01*
X879406Y112441D01*
X879233Y112158D01*
X879013Y111859D01*
X878746Y111592D01*
X878447Y111340D01*
X878431D01*
X878416Y111309D01*
X878353Y111293D01*
X878290Y111246D01*
X878211Y111199D01*
X878101Y111151D01*
X877991Y111104D01*
X877850Y111041D01*
X877535Y110931D01*
X877174Y110837D01*
X876749Y110774D01*
X876293Y110743D01*
X876199D01*
X876105Y110758D01*
X875963D01*
X875790Y110790D01*
X875586Y110821D01*
X875366Y110853D01*
X875145Y110916D01*
X874894Y110978D01*
X874642Y111073D01*
X874391Y111183D01*
X874139Y111309D01*
X873888Y111466D01*
X873652Y111639D01*
X873447Y111843D01*
X873243Y112079D01*
X873227Y112095D01*
X873212Y112126D01*
X873180Y112189D01*
X873117Y112268D01*
X873070Y112378D01*
X873007Y112504D01*
X872928Y112645D01*
X872866Y112818D01*
X872787Y113007D01*
X872724Y113211D01*
X872645Y113431D01*
X872598Y113683D01*
X872551Y113934D01*
X872504Y114202D01*
X872488Y114500D01*
X872473Y114799D01*
Y114815D01*
Y114878D01*
Y114988D01*
X872488Y115129D01*
X872504Y115287D01*
X872520Y115475D01*
X872551Y115680D01*
X872598Y115915D01*
X872724Y116403D01*
X872803Y116654D01*
X872897Y116922D01*
X873023Y117173D01*
X873164Y117409D01*
X873322Y117645D01*
X873494Y117865D01*
X873510Y117881D01*
X873542Y117912D01*
X873605Y117975D01*
X873683Y118038D01*
X873777Y118117D01*
X873903Y118211D01*
X874045Y118321D01*
X874202Y118431D01*
X874375Y118525D01*
X874579Y118635D01*
X874784Y118730D01*
X875020Y118808D01*
X875256Y118871D01*
X875523Y118934D01*
X875790Y118966D01*
X876073Y118981D01*
X876246D01*
X876372Y118966D01*
D02*
G37*
G36*
X870209Y118808D02*
X871639D01*
Y117142D01*
X870209D01*
Y113950D01*
Y113934D01*
Y113903D01*
Y113856D01*
Y113793D01*
Y113636D01*
Y113447D01*
X870224Y113258D01*
Y113070D01*
Y112928D01*
X870240Y112865D01*
Y112834D01*
X870256Y112802D01*
X870287Y112739D01*
X870334Y112661D01*
X870429Y112566D01*
X870460Y112551D01*
X870523Y112519D01*
X870633Y112488D01*
X870775Y112472D01*
X870837D01*
X870900Y112488D01*
X870995Y112504D01*
X871120Y112519D01*
X871262Y112551D01*
X871435Y112598D01*
X871624Y112661D01*
X871812Y111041D01*
X871796D01*
X871781Y111026D01*
X871686Y110994D01*
X871529Y110947D01*
X871325Y110900D01*
X871089Y110837D01*
X870806Y110790D01*
X870491Y110758D01*
X870161Y110743D01*
X870067D01*
X869957Y110758D01*
X869815Y110774D01*
X869658Y110790D01*
X869485Y110821D01*
X869312Y110868D01*
X869139Y110931D01*
X869124Y110947D01*
X869061Y110963D01*
X868982Y111010D01*
X868888Y111057D01*
X868668Y111214D01*
X868558Y111309D01*
X868463Y111419D01*
X868448Y111434D01*
X868432Y111482D01*
X868400Y111545D01*
X868353Y111639D01*
X868306Y111749D01*
X868259Y111890D01*
X868212Y112048D01*
X868180Y112221D01*
Y112236D01*
X868165Y112299D01*
Y112394D01*
X868149Y112551D01*
X868133Y112755D01*
Y113007D01*
X868117Y113148D01*
Y113321D01*
Y113494D01*
Y113699D01*
Y117142D01*
X867158D01*
Y118808D01*
X868117D01*
Y120381D01*
X870209Y121607D01*
Y118808D01*
D02*
G37*
G36*
X917848Y121843D02*
X917974Y121827D01*
X918131Y121796D01*
X918288Y121764D01*
X918477Y121717D01*
X918681Y121654D01*
X918870Y121575D01*
X919074Y121497D01*
X919279Y121387D01*
X919483Y121245D01*
X919688Y121104D01*
X919876Y120931D01*
X920049Y120726D01*
X920065Y120711D01*
X920096Y120664D01*
X920144Y120585D01*
X920222Y120475D01*
X920301Y120318D01*
X920395Y120129D01*
X920489Y119925D01*
X920584Y119657D01*
X920678Y119374D01*
X920788Y119044D01*
X920867Y118683D01*
X920945Y118274D01*
X921024Y117833D01*
X921071Y117362D01*
X921103Y116843D01*
X921118Y116277D01*
Y116261D01*
Y116246D01*
Y116198D01*
Y116136D01*
Y115978D01*
X921103Y115774D01*
X921087Y115522D01*
X921055Y115224D01*
X921024Y114909D01*
X920993Y114563D01*
X920930Y114202D01*
X920851Y113824D01*
X920772Y113463D01*
X920662Y113101D01*
X920552Y112739D01*
X920395Y112409D01*
X920238Y112095D01*
X920049Y111827D01*
X920033Y111812D01*
X920002Y111780D01*
X919955Y111718D01*
X919892Y111655D01*
X919798Y111576D01*
X919688Y111482D01*
X919546Y111372D01*
X919405Y111277D01*
X919232Y111167D01*
X919059Y111057D01*
X918854Y110963D01*
X918634Y110884D01*
X918398Y110821D01*
X918131Y110758D01*
X917864Y110727D01*
X917581Y110711D01*
X917518D01*
X917423Y110727D01*
X917313D01*
X917188Y110743D01*
X917030Y110774D01*
X916857Y110806D01*
X916669Y110868D01*
X916464Y110931D01*
X916260Y111010D01*
X916040Y111104D01*
X915835Y111230D01*
X915615Y111356D01*
X915411Y111529D01*
X915207Y111702D01*
X915018Y111922D01*
X915002Y111938D01*
X914971Y111985D01*
X914924Y112063D01*
X914876Y112158D01*
X914798Y112299D01*
X914719Y112472D01*
X914625Y112692D01*
X914546Y112928D01*
X914452Y113211D01*
X914358Y113526D01*
X914279Y113887D01*
X914216Y114280D01*
X914153Y114720D01*
X914106Y115208D01*
X914074Y115727D01*
X914059Y116293D01*
Y116308D01*
Y116324D01*
Y116371D01*
Y116434D01*
Y116592D01*
X914074Y116796D01*
X914090Y117047D01*
X914122Y117346D01*
X914153Y117661D01*
X914185Y118006D01*
X914248Y118368D01*
X914310Y118730D01*
X914405Y119107D01*
X914499Y119469D01*
X914625Y119815D01*
X914766Y120145D01*
X914924Y120459D01*
X915112Y120726D01*
X915128Y120742D01*
X915159Y120774D01*
X915207Y120837D01*
X915285Y120899D01*
X915364Y120994D01*
X915474Y121088D01*
X915615Y121182D01*
X915757Y121292D01*
X915930Y121403D01*
X916103Y121497D01*
X916307Y121591D01*
X916527Y121686D01*
X916763Y121749D01*
X917030Y121811D01*
X917298Y121843D01*
X917581Y121859D01*
X917738D01*
X917848Y121843D01*
D02*
G37*
%LPC*%
G36*
X220167Y-34314D02*
X218836D01*
Y-35405D01*
X219058Y-36588D01*
X219964D01*
X220167Y-35405D01*
Y-34314D01*
D02*
G37*
G36*
X230300Y-34286D02*
Y-38354D01*
X229505D01*
Y-34286D01*
X228470D01*
X225696Y-38363D01*
Y-37957D01*
Y-39427D01*
X228322D01*
Y-40712D01*
X225696D01*
X230300D01*
Y-34286D01*
D02*
G37*
G36*
X213455Y-34314D02*
X212077D01*
X210515Y-39048D01*
X208888Y-34314D01*
X210810D01*
X207491D01*
X209784Y-40712D01*
X213455D01*
X211180D01*
X213455Y-34314D01*
D02*
G37*
G36*
X225077Y-34277D02*
X220777D01*
D01*
X223043D01*
X222885Y-34286D01*
X222738Y-34295D01*
X222451Y-34342D01*
X222211Y-34416D01*
X222099Y-34453D01*
X221998Y-34499D01*
X221905Y-34536D01*
X221831Y-34582D01*
X221757Y-34619D01*
X221702Y-34647D01*
X221656Y-34684D01*
X221628Y-34702D01*
X221609Y-34711D01*
X221600Y-34721D01*
X221499Y-34813D01*
X221406Y-34906D01*
X221323Y-35017D01*
X221249Y-35137D01*
X221138Y-35377D01*
X221045Y-35608D01*
X221018Y-35728D01*
X220990Y-35830D01*
X220962Y-35923D01*
X220953Y-36006D01*
X220935Y-36080D01*
Y-36126D01*
X220925Y-36163D01*
Y-36172D01*
X222146Y-36292D01*
X222164Y-36107D01*
X222201Y-35950D01*
X222238Y-35812D01*
X222284Y-35710D01*
X222321Y-35627D01*
X222358Y-35571D01*
X222386Y-35534D01*
X222395Y-35525D01*
X222488Y-35451D01*
X222589Y-35396D01*
X222691Y-35349D01*
X222793Y-35322D01*
X222876Y-35303D01*
X222950Y-35294D01*
X223015D01*
X223153Y-35303D01*
X223274Y-35331D01*
X223375Y-35368D01*
X223468Y-35405D01*
X223533Y-35442D01*
X223588Y-35479D01*
X223616Y-35506D01*
X223625Y-35516D01*
X223699Y-35608D01*
X223755Y-35710D01*
X223792Y-35812D01*
X223819Y-35913D01*
X223838Y-36006D01*
X223847Y-36089D01*
Y-36135D01*
Y-36144D01*
Y-36154D01*
X223838Y-36292D01*
X223810Y-36422D01*
X223764Y-36551D01*
X223717Y-36662D01*
X223671Y-36764D01*
X223625Y-36838D01*
X223597Y-36884D01*
X223588Y-36903D01*
X223551Y-36958D01*
X223496Y-37023D01*
X223422Y-37106D01*
X223348Y-37180D01*
X223181Y-37356D01*
X223015Y-37531D01*
X222848Y-37698D01*
X222775Y-37772D01*
X222701Y-37827D01*
X222645Y-37883D01*
X222608Y-37920D01*
X222580Y-37947D01*
X222571Y-37957D01*
X222386Y-38132D01*
X222220Y-38299D01*
X222062Y-38456D01*
X221924Y-38595D01*
X221794Y-38733D01*
X221684Y-38863D01*
X221582Y-38974D01*
X221499Y-39085D01*
X221425Y-39177D01*
X221360Y-39260D01*
X221304Y-39325D01*
X221267Y-39390D01*
X221230Y-39427D01*
X221212Y-39464D01*
X221194Y-39482D01*
Y-39491D01*
X221073Y-39704D01*
X220981Y-39926D01*
X220907Y-40129D01*
X220851Y-40314D01*
X220814Y-40481D01*
X220805Y-40545D01*
X220796Y-40601D01*
X220787Y-40647D01*
X220777Y-40684D01*
Y-40712D01*
X225077D01*
Y-36070D01*
X225067Y-35932D01*
X225049Y-35793D01*
X225030Y-35664D01*
X224993Y-35543D01*
X224901Y-35331D01*
X224809Y-35146D01*
X224753Y-35063D01*
X224707Y-34998D01*
X224661Y-34933D01*
X224614Y-34887D01*
X224577Y-34850D01*
X224559Y-34813D01*
X224540Y-34804D01*
X224531Y-34795D01*
X224429Y-34702D01*
X224309Y-34619D01*
X224198Y-34554D01*
X224069Y-34499D01*
X223829Y-34406D01*
X223588Y-34342D01*
X223477Y-34323D01*
X223375Y-34305D01*
X223283Y-34295D01*
X223200Y-34286D01*
X223135Y-34277D01*
X225077D01*
D01*
D02*
G37*
G36*
X215322Y-39482D02*
X214093D01*
Y-40712D01*
X215322D01*
Y-39482D01*
D02*
G37*
G36*
X199827Y-34314D02*
X194742D01*
Y-40712D01*
X195935D01*
Y-36496D01*
X198533Y-40712D01*
X199827D01*
Y-34314D01*
D02*
G37*
G36*
X207131Y-34194D02*
X200927D01*
X204015D01*
X203738Y-34203D01*
X203470Y-34231D01*
X203239Y-34277D01*
X203035Y-34323D01*
X202952Y-34351D01*
X202869Y-34369D01*
X202804Y-34388D01*
X202749Y-34416D01*
X202702Y-34425D01*
X202665Y-34443D01*
X202647Y-34453D01*
X202638D01*
X202471Y-34527D01*
X202314Y-34619D01*
X202175Y-34721D01*
X202055Y-34813D01*
X201953Y-34896D01*
X201870Y-34970D01*
X201824Y-35017D01*
X201815Y-35026D01*
X201805Y-35035D01*
X201676Y-35183D01*
X201556Y-35340D01*
X201454Y-35479D01*
X201371Y-35617D01*
X201306Y-35738D01*
X201251Y-35830D01*
X201241Y-35867D01*
X201223Y-35895D01*
X201214Y-35904D01*
Y-35913D01*
X201121Y-36172D01*
X201047Y-36450D01*
X201001Y-36727D01*
X200964Y-36986D01*
X200955Y-37106D01*
X200946Y-37217D01*
X200936Y-37309D01*
Y-37393D01*
X200927Y-37467D01*
Y-40832D01*
Y-37559D01*
X200936Y-37836D01*
X200964Y-38105D01*
X201001Y-38354D01*
X201056Y-38585D01*
X201121Y-38798D01*
X201195Y-38992D01*
X201269Y-39177D01*
X201352Y-39334D01*
X201426Y-39482D01*
X201500Y-39602D01*
X201574Y-39713D01*
X201639Y-39806D01*
X201695Y-39871D01*
X201731Y-39926D01*
X201759Y-39954D01*
X201768Y-39963D01*
X201935Y-40120D01*
X202111Y-40250D01*
X202286Y-40370D01*
X202480Y-40462D01*
X202665Y-40545D01*
X202859Y-40619D01*
X203035Y-40675D01*
X203220Y-40721D01*
X203386Y-40758D01*
X203544Y-40786D01*
X203682Y-40804D01*
X203803Y-40813D01*
X203895Y-40823D01*
X203969Y-40832D01*
X204034D01*
X204293Y-40823D01*
X204533Y-40795D01*
X204764Y-40749D01*
X204977Y-40693D01*
X205180Y-40629D01*
X205365Y-40555D01*
X205531Y-40481D01*
X205689Y-40398D01*
X205818Y-40314D01*
X205938Y-40240D01*
X206040Y-40166D01*
X206123Y-40102D01*
X206197Y-40046D01*
X206243Y-40000D01*
X206271Y-39972D01*
X206280Y-39963D01*
X206428Y-39787D01*
X206558Y-39602D01*
X206678Y-39408D01*
X206770Y-39214D01*
X206854Y-39011D01*
X206928Y-38807D01*
X206983Y-38604D01*
X207029Y-38410D01*
X207057Y-38234D01*
X207085Y-38058D01*
X207103Y-37910D01*
X207122Y-37781D01*
Y-37670D01*
X207131Y-37587D01*
Y-37513D01*
Y-37522D01*
X207122Y-37236D01*
X207094Y-36967D01*
X207057Y-36718D01*
X207001Y-36477D01*
X206937Y-36265D01*
X206863Y-36061D01*
X206789Y-35876D01*
X206706Y-35719D01*
X206622Y-35571D01*
X206548Y-35442D01*
X206474Y-35331D01*
X206410Y-35238D01*
X206364Y-35174D01*
X206317Y-35118D01*
X206290Y-35090D01*
X206280Y-35081D01*
X206114Y-34924D01*
X205938Y-34785D01*
X205753Y-34665D01*
X205568Y-34564D01*
X205374Y-34480D01*
X205189Y-34406D01*
X205004Y-34351D01*
X204829Y-34305D01*
X204662Y-34268D01*
X204505Y-34240D01*
X204366Y-34221D01*
X204246Y-34203D01*
X204154D01*
X204080Y-34194D01*
X207131D01*
D01*
D02*
G37*
%LPD*%
G36*
X228322Y-38354D02*
X226833D01*
X228322Y-36154D01*
Y-38354D01*
D02*
G37*
G36*
X230300Y-40712D02*
X229505D01*
Y-39427D01*
X230300D01*
Y-40712D01*
D02*
G37*
G36*
X225077Y-39575D02*
X222636D01*
X222710Y-39454D01*
X222793Y-39353D01*
X222830Y-39306D01*
X222858Y-39269D01*
X222876Y-39251D01*
X222885Y-39242D01*
X222922Y-39205D01*
X222959Y-39158D01*
X223070Y-39057D01*
X223190Y-38937D01*
X223311Y-38816D01*
X223431Y-38705D01*
X223533Y-38613D01*
X223570Y-38576D01*
X223597Y-38548D01*
X223616Y-38539D01*
X223625Y-38530D01*
X223829Y-38336D01*
X223995Y-38179D01*
X224134Y-38031D01*
X224244Y-37920D01*
X224328Y-37827D01*
X224383Y-37762D01*
X224420Y-37716D01*
X224429Y-37707D01*
X224550Y-37550D01*
X224651Y-37402D01*
X224734Y-37263D01*
X224799Y-37143D01*
X224855Y-37041D01*
X224892Y-36958D01*
X224910Y-36912D01*
X224919Y-36893D01*
X224975Y-36745D01*
X225012Y-36597D01*
X225040Y-36459D01*
X225058Y-36329D01*
X225067Y-36228D01*
X225077Y-36144D01*
Y-39575D01*
D02*
G37*
G36*
X198634Y-38622D02*
X195990Y-34314D01*
X198634D01*
Y-38622D01*
D02*
G37*
G36*
X204182Y-35303D02*
X204320Y-35322D01*
X204450Y-35340D01*
X204570Y-35377D01*
X204783Y-35470D01*
X204884Y-35516D01*
X204967Y-35562D01*
X205051Y-35617D01*
X205115Y-35664D01*
X205171Y-35710D01*
X205226Y-35756D01*
X205263Y-35793D01*
X205291Y-35812D01*
X205300Y-35830D01*
X205310Y-35839D01*
X205393Y-35950D01*
X205476Y-36070D01*
X205541Y-36191D01*
X205596Y-36329D01*
X205679Y-36607D01*
X205735Y-36875D01*
X205763Y-36995D01*
X205772Y-37115D01*
X205781Y-37217D01*
X205790Y-37309D01*
X205800Y-37393D01*
Y-37448D01*
Y-37485D01*
Y-37494D01*
X205790Y-37698D01*
X205781Y-37892D01*
X205753Y-38068D01*
X205726Y-38225D01*
X205689Y-38382D01*
X205642Y-38521D01*
X205596Y-38641D01*
X205550Y-38752D01*
X205504Y-38853D01*
X205457Y-38937D01*
X205420Y-39011D01*
X205374Y-39075D01*
X205347Y-39122D01*
X205319Y-39149D01*
X205310Y-39168D01*
X205300Y-39177D01*
X205208Y-39279D01*
X205106Y-39362D01*
X204995Y-39436D01*
X204893Y-39501D01*
X204783Y-39547D01*
X204681Y-39593D01*
X204477Y-39658D01*
X204302Y-39704D01*
X204228Y-39713D01*
X204163Y-39722D01*
X204108Y-39732D01*
X204034D01*
X203895Y-39722D01*
X203756Y-39704D01*
X203627Y-39676D01*
X203507Y-39639D01*
X203285Y-39556D01*
X203109Y-39445D01*
X203026Y-39399D01*
X202961Y-39344D01*
X202896Y-39297D01*
X202850Y-39251D01*
X202813Y-39223D01*
X202785Y-39195D01*
X202767Y-39177D01*
X202758Y-39168D01*
X202675Y-39057D01*
X202591Y-38937D01*
X202527Y-38807D01*
X202471Y-38668D01*
X202379Y-38400D01*
X202323Y-38132D01*
X202305Y-38003D01*
X202286Y-37892D01*
X202277Y-37781D01*
X202268Y-37689D01*
X202258Y-37615D01*
Y-37559D01*
Y-37522D01*
Y-37513D01*
X202268Y-37309D01*
X202277Y-37125D01*
X202305Y-36949D01*
X202332Y-36782D01*
X202369Y-36635D01*
X202406Y-36496D01*
X202453Y-36376D01*
X202499Y-36265D01*
X202545Y-36163D01*
X202591Y-36080D01*
X202628Y-36015D01*
X202665Y-35950D01*
X202693Y-35904D01*
X202721Y-35876D01*
X202730Y-35858D01*
X202739Y-35849D01*
X202832Y-35747D01*
X202933Y-35664D01*
X203044Y-35590D01*
X203146Y-35525D01*
X203257Y-35470D01*
X203368Y-35433D01*
X203571Y-35359D01*
X203756Y-35322D01*
X203830Y-35312D01*
X203904Y-35303D01*
X203960Y-35294D01*
X204034D01*
X204182Y-35303D01*
D02*
G37*
%LPC*%
G36*
X116368Y-110473D02*
X116331D01*
X116220Y-110492D01*
X116053Y-110510D01*
X115868Y-110566D01*
X115627Y-110640D01*
X115386Y-110769D01*
X115146Y-110936D01*
X114905Y-111177D01*
X114886Y-111214D01*
X114812Y-111306D01*
X114720Y-111473D01*
X114627Y-111695D01*
X114516Y-111991D01*
X114423Y-112343D01*
X114349Y-112769D01*
X114331Y-113251D01*
Y-113269D01*
Y-113306D01*
Y-113399D01*
Y-113491D01*
X114349Y-113621D01*
Y-113750D01*
X114386Y-114065D01*
X114423Y-114417D01*
X114497Y-114787D01*
X114608Y-115121D01*
X114664Y-115269D01*
X114738Y-115399D01*
Y-115417D01*
X114775Y-115435D01*
X114849Y-115547D01*
X114979Y-115695D01*
X115164Y-115861D01*
X115405Y-116047D01*
X115682Y-116195D01*
X116016Y-116306D01*
X116201Y-116324D01*
X116386Y-116343D01*
X116423D01*
X116534Y-116324D01*
X116682Y-116306D01*
X116886Y-116250D01*
X117108Y-116176D01*
X117349Y-116047D01*
X117590Y-115880D01*
X117830Y-115639D01*
X117849Y-115602D01*
X117923Y-115510D01*
X118016Y-115343D01*
X118127Y-115102D01*
X118238Y-114806D01*
X118330Y-114436D01*
X118404Y-113991D01*
X118423Y-113491D01*
Y-113473D01*
Y-113417D01*
Y-113343D01*
Y-113232D01*
X118404Y-113102D01*
X118386Y-112936D01*
X118349Y-112603D01*
X118275Y-112214D01*
X118182Y-111843D01*
X118034Y-111473D01*
X117942Y-111325D01*
X117830Y-111177D01*
X117812Y-111140D01*
X117719Y-111066D01*
X117608Y-110955D01*
X117442Y-110825D01*
X117219Y-110695D01*
X116979Y-110584D01*
X116682Y-110510D01*
X116368Y-110473D01*
D02*
G37*
G36*
X128422Y-113639D02*
X128403D01*
X128329Y-113676D01*
X128218Y-113695D01*
X128052Y-113750D01*
X127848Y-113806D01*
X127570Y-113880D01*
X127274Y-113954D01*
X126903Y-114028D01*
X126867D01*
X126811Y-114047D01*
X126737Y-114065D01*
X126570Y-114102D01*
X126348Y-114158D01*
X126126Y-114213D01*
X125904Y-114288D01*
X125718Y-114380D01*
X125570Y-114454D01*
X125552Y-114473D01*
X125496Y-114510D01*
X125422Y-114584D01*
X125348Y-114676D01*
X125256Y-114806D01*
X125182Y-114954D01*
X125126Y-115121D01*
X125107Y-115306D01*
Y-115324D01*
Y-115399D01*
X125126Y-115491D01*
X125163Y-115602D01*
X125200Y-115750D01*
X125256Y-115898D01*
X125348Y-116047D01*
X125478Y-116195D01*
X125496Y-116213D01*
X125552Y-116250D01*
X125626Y-116306D01*
X125756Y-116380D01*
X125885Y-116454D01*
X126052Y-116510D01*
X126255Y-116546D01*
X126459Y-116565D01*
X126570D01*
X126700Y-116546D01*
X126867Y-116510D01*
X127070Y-116454D01*
X127274Y-116380D01*
X127515Y-116287D01*
X127737Y-116139D01*
X127755Y-116121D01*
X127811Y-116084D01*
X127885Y-116010D01*
X127978Y-115917D01*
X128070Y-115787D01*
X128163Y-115658D01*
X128255Y-115491D01*
X128311Y-115324D01*
Y-115306D01*
X128329Y-115269D01*
X128348Y-115176D01*
X128366Y-115065D01*
X128385Y-114899D01*
X128403Y-114695D01*
X128422Y-114436D01*
Y-114139D01*
Y-113639D01*
D02*
G37*
G36*
X95055Y-107436D02*
X92092D01*
Y-110695D01*
X94611D01*
X94981Y-110677D01*
X95370Y-110658D01*
X95759Y-110640D01*
X95925Y-110621D01*
X96073Y-110603D01*
X96222Y-110566D01*
X96314Y-110547D01*
X96333D01*
X96388Y-110510D01*
X96481Y-110473D01*
X96573Y-110417D01*
X96814Y-110251D01*
X96925Y-110140D01*
X97036Y-110010D01*
X97055Y-109992D01*
X97073Y-109936D01*
X97129Y-109862D01*
X97184Y-109751D01*
X97221Y-109603D01*
X97277Y-109436D01*
X97296Y-109251D01*
X97314Y-109047D01*
Y-109010D01*
Y-108936D01*
X97296Y-108825D01*
X97277Y-108677D01*
X97221Y-108510D01*
X97166Y-108344D01*
X97073Y-108159D01*
X96962Y-108010D01*
X96944Y-107992D01*
X96907Y-107936D01*
X96814Y-107881D01*
X96703Y-107788D01*
X96573Y-107696D01*
X96407Y-107621D01*
X96203Y-107547D01*
X95981Y-107492D01*
X95962D01*
X95907Y-107473D01*
X95796D01*
X95629Y-107455D01*
X95222D01*
X95055Y-107436D01*
D02*
G37*
G36*
X147457Y-110584D02*
X147364D01*
X147290Y-110603D01*
X147124Y-110621D01*
X146902Y-110677D01*
X146642Y-110769D01*
X146364Y-110899D01*
X146087Y-111084D01*
X145828Y-111325D01*
X145809Y-111362D01*
X145735Y-111454D01*
X145624Y-111640D01*
X145513Y-111862D01*
X145383Y-112158D01*
X145290Y-112528D01*
X145216Y-112954D01*
X145179Y-113436D01*
Y-113454D01*
Y-113491D01*
Y-113565D01*
X145198Y-113658D01*
Y-113787D01*
X145216Y-113917D01*
X145253Y-114213D01*
X145346Y-114565D01*
X145457Y-114917D01*
X145605Y-115269D01*
X145828Y-115565D01*
X145864Y-115602D01*
X145939Y-115676D01*
X146087Y-115787D01*
X146290Y-115917D01*
X146513Y-116065D01*
X146790Y-116176D01*
X147105Y-116250D01*
X147457Y-116287D01*
X147549D01*
X147624Y-116269D01*
X147790Y-116250D01*
X148013Y-116195D01*
X148272Y-116102D01*
X148549Y-115991D01*
X148809Y-115806D01*
X149068Y-115565D01*
X149105Y-115528D01*
X149179Y-115435D01*
X149272Y-115250D01*
X149401Y-115028D01*
X149531Y-114713D01*
X149623Y-114361D01*
X149698Y-113917D01*
X149734Y-113436D01*
Y-113417D01*
Y-113380D01*
Y-113306D01*
X149716Y-113214D01*
Y-113102D01*
X149698Y-112954D01*
X149660Y-112658D01*
X149568Y-112325D01*
X149457Y-111973D01*
X149290Y-111621D01*
X149068Y-111325D01*
X149031Y-111288D01*
X148957Y-111214D01*
X148809Y-111084D01*
X148624Y-110955D01*
X148383Y-110825D01*
X148124Y-110695D01*
X147809Y-110621D01*
X147457Y-110584D01*
D02*
G37*
G36*
X106072Y-110473D02*
X105943D01*
X105795Y-110510D01*
X105609Y-110547D01*
X105406Y-110621D01*
X105184Y-110714D01*
X104961Y-110862D01*
X104758Y-111066D01*
X104739Y-111084D01*
X104684Y-111177D01*
X104591Y-111306D01*
X104498Y-111491D01*
X104387Y-111714D01*
X104313Y-111991D01*
X104258Y-112306D01*
X104239Y-112658D01*
X107906D01*
Y-112640D01*
Y-112603D01*
Y-112565D01*
X107887Y-112491D01*
X107868Y-112288D01*
X107831Y-112065D01*
X107757Y-111806D01*
X107665Y-111529D01*
X107517Y-111269D01*
X107350Y-111047D01*
X107331Y-111029D01*
X107257Y-110955D01*
X107146Y-110862D01*
X106998Y-110751D01*
X106813Y-110658D01*
X106591Y-110566D01*
X106350Y-110492D01*
X106072Y-110473D01*
D02*
G37*
G36*
X202730Y-80483D02*
X200497Y-83784D01*
X202730D01*
Y-80483D01*
D02*
G37*
G36*
Y84518D02*
X200497Y81217D01*
X202730D01*
Y84518D01*
D02*
G37*
G36*
X493230Y-105482D02*
X490997Y-108783D01*
X493230D01*
Y-105482D01*
D02*
G37*
G36*
X411230D02*
X408997Y-108783D01*
X411230D01*
Y-105482D01*
D02*
G37*
G36*
X407853Y-40482D02*
X405620Y-43783D01*
X407853D01*
Y-40482D01*
D02*
G37*
G36*
X489853D02*
X487620Y-43783D01*
X489853D01*
Y-40482D01*
D02*
G37*
G36*
X407853Y44518D02*
X405620Y41217D01*
X407853D01*
Y44518D01*
D02*
G37*
G36*
X411230Y109519D02*
X408997Y106218D01*
X411230D01*
Y109519D01*
D02*
G37*
G36*
X493230Y109518D02*
X490997Y106217D01*
X493230D01*
Y109518D01*
D02*
G37*
G36*
X489853Y44517D02*
X487620Y41216D01*
X489853D01*
Y44517D01*
D02*
G37*
G36*
X838716Y119956D02*
X837285D01*
Y112755D01*
X839219D01*
X839424Y112771D01*
X839644D01*
X839864Y112802D01*
X840068Y112818D01*
X840241Y112850D01*
X840273D01*
X840336Y112881D01*
X840430Y112912D01*
X840556Y112959D01*
X840697Y113022D01*
X840839Y113101D01*
X840980Y113195D01*
X841122Y113305D01*
X841137Y113321D01*
X841185Y113368D01*
X841247Y113447D01*
X841326Y113557D01*
X841405Y113699D01*
X841515Y113871D01*
X841593Y114092D01*
X841688Y114343D01*
Y114359D01*
X841703Y114375D01*
Y114422D01*
X841719Y114485D01*
X841751Y114548D01*
X841766Y114642D01*
X841814Y114878D01*
X841845Y115161D01*
X841892Y115491D01*
X841908Y115900D01*
X841924Y116340D01*
Y116356D01*
Y116403D01*
Y116466D01*
Y116544D01*
Y116654D01*
X841908Y116780D01*
X841892Y117047D01*
X841861Y117362D01*
X841829Y117692D01*
X841766Y117991D01*
X841688Y118274D01*
Y118289D01*
X841672Y118305D01*
X841640Y118384D01*
X841593Y118510D01*
X841531Y118667D01*
X841436Y118824D01*
X841326Y118997D01*
X841200Y119170D01*
X841059Y119327D01*
X841043Y119343D01*
X840996Y119390D01*
X840902Y119453D01*
X840791Y119532D01*
X840634Y119626D01*
X840461Y119705D01*
X840273Y119783D01*
X840052Y119846D01*
X840037D01*
X839958Y119862D01*
X839832Y119878D01*
X839660Y119909D01*
X839549D01*
X839408Y119925D01*
X839266D01*
X839109Y119940D01*
X838921D01*
X838716Y119956D01*
D02*
G37*
G36*
X809802Y114689D02*
X809787D01*
X809724Y114658D01*
X809629Y114642D01*
X809488Y114595D01*
X809315Y114548D01*
X809079Y114485D01*
X808828Y114422D01*
X808513Y114359D01*
X808482D01*
X808434Y114343D01*
X808372Y114327D01*
X808230Y114296D01*
X808041Y114249D01*
X807853Y114202D01*
X807664Y114139D01*
X807507Y114060D01*
X807381Y113997D01*
X807365Y113982D01*
X807318Y113950D01*
X807255Y113887D01*
X807192Y113808D01*
X807114Y113699D01*
X807051Y113573D01*
X807004Y113431D01*
X806988Y113274D01*
Y113258D01*
Y113195D01*
X807004Y113117D01*
X807035Y113022D01*
X807066Y112897D01*
X807114Y112771D01*
X807192Y112645D01*
X807302Y112519D01*
X807318Y112504D01*
X807365Y112472D01*
X807428Y112425D01*
X807538Y112362D01*
X807648Y112299D01*
X807790Y112252D01*
X807963Y112221D01*
X808136Y112205D01*
X808230D01*
X808340Y112221D01*
X808482Y112252D01*
X808654Y112299D01*
X808828Y112362D01*
X809032Y112441D01*
X809221Y112566D01*
X809236Y112582D01*
X809283Y112614D01*
X809346Y112676D01*
X809425Y112755D01*
X809503Y112865D01*
X809582Y112975D01*
X809661Y113117D01*
X809708Y113258D01*
Y113274D01*
X809724Y113305D01*
X809739Y113384D01*
X809755Y113478D01*
X809771Y113620D01*
X809787Y113793D01*
X809802Y114013D01*
Y114264D01*
Y114689D01*
D02*
G37*
G36*
X876199Y117378D02*
X876089D01*
X875963Y117346D01*
X875806Y117315D01*
X875633Y117252D01*
X875444Y117173D01*
X875256Y117047D01*
X875082Y116875D01*
X875067Y116859D01*
X875020Y116780D01*
X874941Y116670D01*
X874862Y116513D01*
X874768Y116324D01*
X874705Y116088D01*
X874658Y115821D01*
X874642Y115522D01*
X877755D01*
Y115538D01*
Y115569D01*
Y115601D01*
X877740Y115664D01*
X877724Y115837D01*
X877692Y116025D01*
X877630Y116246D01*
X877551Y116481D01*
X877425Y116701D01*
X877284Y116890D01*
X877268Y116906D01*
X877205Y116969D01*
X877111Y117047D01*
X876985Y117142D01*
X876828Y117220D01*
X876639Y117299D01*
X876435Y117362D01*
X876199Y117378D01*
D02*
G37*
G36*
X917581Y120129D02*
X917518D01*
X917439Y120113D01*
X917361Y120098D01*
X917251Y120066D01*
X917141Y120019D01*
X917015Y119956D01*
X916905Y119878D01*
X916889Y119862D01*
X916857Y119830D01*
X916810Y119767D01*
X916747Y119689D01*
X916669Y119563D01*
X916606Y119422D01*
X916527Y119233D01*
X916464Y119013D01*
Y118997D01*
X916449Y118981D01*
Y118918D01*
X916433Y118855D01*
X916417Y118761D01*
X916402Y118651D01*
X916386Y118525D01*
X916370Y118368D01*
X916339Y118179D01*
X916323Y117991D01*
X916307Y117755D01*
X916291Y117519D01*
X916276Y117236D01*
Y116953D01*
X916260Y116623D01*
Y116277D01*
Y116261D01*
Y116198D01*
Y116088D01*
Y115963D01*
Y115805D01*
X916276Y115632D01*
Y115428D01*
X916291Y115224D01*
X916307Y114783D01*
X916339Y114343D01*
X916354Y114139D01*
X916386Y113950D01*
X916417Y113777D01*
X916449Y113620D01*
X916464Y113588D01*
X916480Y113510D01*
X916527Y113384D01*
X916574Y113243D01*
X916653Y113085D01*
X916732Y112928D01*
X916826Y112787D01*
X916920Y112676D01*
X916936Y112661D01*
X916967Y112645D01*
X917030Y112598D01*
X917109Y112566D01*
X917203Y112519D01*
X917313Y112472D01*
X917439Y112456D01*
X917581Y112441D01*
X917644D01*
X917722Y112456D01*
X917801Y112472D01*
X917911Y112504D01*
X918021Y112535D01*
X918131Y112598D01*
X918241Y112676D01*
X918257Y112692D01*
X918288Y112724D01*
X918351Y112787D01*
X918414Y112881D01*
X918477Y112991D01*
X918556Y113148D01*
X918634Y113321D01*
X918697Y113541D01*
Y113557D01*
X918713Y113573D01*
Y113636D01*
X918728Y113699D01*
X918744Y113793D01*
X918760Y113903D01*
X918791Y114029D01*
X918807Y114186D01*
X918823Y114359D01*
X918854Y114563D01*
X918870Y114783D01*
X918886Y115035D01*
X918901Y115302D01*
Y115601D01*
X918917Y115931D01*
Y116277D01*
Y116293D01*
Y116356D01*
Y116466D01*
Y116592D01*
Y116749D01*
X918901Y116922D01*
Y117126D01*
X918886Y117330D01*
X918870Y117771D01*
X918839Y118195D01*
X918807Y118400D01*
X918776Y118604D01*
X918744Y118777D01*
X918713Y118918D01*
Y118934D01*
X918697Y118950D01*
X918681Y119029D01*
X918634Y119154D01*
X918587Y119312D01*
X918508Y119469D01*
X918430Y119626D01*
X918335Y119767D01*
X918241Y119878D01*
X918225Y119893D01*
X918194Y119925D01*
X918131Y119956D01*
X918052Y120003D01*
X917958Y120050D01*
X917848Y120098D01*
X917722Y120113D01*
X917581Y120129D01*
D02*
G37*
%LPD*%
D10*
X714750Y-130000D02*
G03*
X714750Y-130000I-1250J0D01*
G01*
X546250Y70000D02*
G03*
X546250Y70000I-1250J0D01*
G01*
Y-70000D02*
G03*
X546250Y-70000I-1250J0D01*
G01*
X242250D02*
G03*
X242250Y-70000I-1250J0D01*
G01*
Y70000D02*
G03*
X242250Y70000I-1250J0D01*
G01*
X714750Y10000D02*
G03*
X714750Y10000I-1250J0D01*
G01*
D11*
X574500Y129000D02*
G03*
X555000Y109500I0J-19500D01*
G01*
X673000D02*
G03*
X653500Y129000I-19500J0D01*
G01*
Y11000D02*
G03*
X673000Y30500I0J19500D01*
G01*
X555000D02*
G03*
X574500Y11000I19500J0D01*
G01*
Y-11000D02*
G03*
X555000Y-30500I0J-19500D01*
G01*
X673000D02*
G03*
X653500Y-11000I-19500J0D01*
G01*
Y-129000D02*
G03*
X673000Y-109500I0J19500D01*
G01*
X555000D02*
G03*
X574500Y-129000I19500J0D01*
G01*
X369000Y109500D02*
G03*
X349500Y129000I-19500J0D01*
G01*
X270500D02*
G03*
X251000Y109500I0J-19500D01*
G01*
X349500Y11000D02*
G03*
X369000Y30500I0J19500D01*
G01*
X251000D02*
G03*
X270500Y11000I19500J0D01*
G01*
X251000Y-109500D02*
G03*
X270500Y-129000I19500J0D01*
G01*
X349500D02*
G03*
X369000Y-109500I0J19500D01*
G01*
Y-30500D02*
G03*
X349500Y-11000I-19500J0D01*
G01*
X270500D02*
G03*
X251000Y-30500I0J-19500D01*
G01*
X456000Y71499D02*
G03*
X453500Y73999I-2500J0D01*
G01*
Y10999D02*
G03*
X456000Y13499I0J2500D01*
G01*
X386000D02*
G03*
X388500Y10999I2500J0D01*
G01*
Y73999D02*
G03*
X386000Y71499I0J-2500D01*
G01*
X538000D02*
G03*
X535500Y73999I-2500J0D01*
G01*
Y10999D02*
G03*
X538000Y13499I0J2500D01*
G01*
X468000D02*
G03*
X470500Y10999I2500J0D01*
G01*
Y73999D02*
G03*
X468000Y71499I0J-2500D01*
G01*
X538000Y-13500D02*
G03*
X535500Y-11000I-2500J0D01*
G01*
Y-74000D02*
G03*
X538000Y-71500I0J2500D01*
G01*
X468000D02*
G03*
X470500Y-74000I2500J0D01*
G01*
Y-11000D02*
G03*
X468000Y-13500I0J-2500D01*
G01*
X388500Y-11000D02*
G03*
X386000Y-13500I0J-2500D01*
G01*
Y-71500D02*
G03*
X388500Y-74000I2500J0D01*
G01*
X453500D02*
G03*
X456000Y-71500I0J2500D01*
G01*
Y-13500D02*
G03*
X453500Y-11000I-2500J0D01*
G01*
X388500Y-86001D02*
G03*
X386000Y-88501I0J-2500D01*
G01*
Y-126501D02*
G03*
X388500Y-129001I2500J0D01*
G01*
X453500D02*
G03*
X456000Y-126501I0J2500D01*
G01*
Y-88501D02*
G03*
X453500Y-86001I-2500J0D01*
G01*
X470500D02*
G03*
X468000Y-88501I0J-2500D01*
G01*
Y-126501D02*
G03*
X470500Y-129001I2500J0D01*
G01*
X535500D02*
G03*
X538000Y-126501I0J2500D01*
G01*
Y-88501D02*
G03*
X535500Y-86001I-2500J0D01*
G01*
X470500Y129001D02*
G03*
X468000Y126501I0J-2500D01*
G01*
Y88501D02*
G03*
X470500Y86001I2500J0D01*
G01*
X535500D02*
G03*
X538000Y88501I0J2500D01*
G01*
Y126501D02*
G03*
X535500Y129001I-2500J0D01*
G01*
X388500Y129000D02*
G03*
X386000Y126500I0J-2500D01*
G01*
Y88500D02*
G03*
X388500Y86000I2500J0D01*
G01*
X453500D02*
G03*
X456000Y88500I0J2500D01*
G01*
Y126500D02*
G03*
X453500Y129000I-2500J0D01*
G01*
X234000Y115000D02*
G03*
X231500Y117500I-2500J0D01*
G01*
X193500D02*
G03*
X191000Y115000I0J-2500D01*
G01*
Y50000D02*
G03*
X193500Y47500I2500J0D01*
G01*
X231500D02*
G03*
X234000Y50000I0J2500D01*
G01*
X231500Y-117501D02*
G03*
X234000Y-115001I0J2500D01*
G01*
X191000D02*
G03*
X193500Y-117501I2500J0D01*
G01*
Y-47501D02*
G03*
X191000Y-50001I0J-2500D01*
G01*
X234000D02*
G03*
X231500Y-47501I-2500J0D01*
G01*
X574500Y129000D02*
X653500D01*
X673000Y99000D02*
Y109500D01*
X555000Y99000D02*
Y109500D01*
Y30500D02*
Y41000D01*
X673000Y30500D02*
Y41000D01*
X574500Y11000D02*
X653500D01*
X574500Y-11000D02*
X653500D01*
X673000Y-41000D02*
Y-30500D01*
X555000Y-41000D02*
Y-30500D01*
Y-109500D02*
Y-99000D01*
X673000Y-109500D02*
Y-99000D01*
X574500Y-129000D02*
X653500D01*
X251000Y99000D02*
Y109500D01*
X369000Y99000D02*
Y109500D01*
X270500Y129000D02*
X349500D01*
X251000Y30500D02*
Y41000D01*
X369000Y30500D02*
Y41000D01*
X270500Y11000D02*
X349500D01*
X270500Y-129000D02*
X349500D01*
X369000Y-109500D02*
Y-99000D01*
X251000Y-109500D02*
Y-99000D01*
Y-41000D02*
Y-30500D01*
X369000Y-41000D02*
Y-30500D01*
X270500Y-11000D02*
X349500D01*
X456000Y13499D02*
Y71499D01*
X388500Y10999D02*
X453500D01*
X386000Y13499D02*
Y71499D01*
X388500Y73999D02*
X453500D01*
X538000Y13499D02*
Y71499D01*
X470500Y10999D02*
X535500D01*
X468000Y13499D02*
Y71499D01*
X470500Y73999D02*
X535500D01*
X538000Y-71500D02*
Y-13500D01*
X470500Y-74000D02*
X535500D01*
X468000Y-71500D02*
Y-13500D01*
X470500Y-11000D02*
X535500D01*
X388500D02*
X453500D01*
X386000Y-71500D02*
Y-13500D01*
X388500Y-74000D02*
X453500D01*
X456000Y-71500D02*
Y-13500D01*
X388500Y-86001D02*
X453500D01*
X386000Y-126501D02*
Y-88501D01*
X388500Y-129001D02*
X453500D01*
X456000Y-126501D02*
Y-88501D01*
X470500Y-86001D02*
X535500D01*
X468000Y-126501D02*
Y-88501D01*
X470500Y-129001D02*
X535500D01*
X538000Y-126501D02*
Y-88501D01*
X470500Y129001D02*
X535500D01*
X468000Y88501D02*
Y126501D01*
X470500Y86001D02*
X535500D01*
X538000Y88501D02*
Y126501D01*
X388500Y129000D02*
X453500D01*
X386000Y88500D02*
Y126500D01*
X388500Y86000D02*
X453500D01*
X456000Y88500D02*
Y126500D01*
X234000Y50000D02*
Y115000D01*
X193500Y117500D02*
X231500D01*
X191000Y50000D02*
Y115000D01*
X193500Y47500D02*
X231500D01*
X193500Y-117501D02*
X231500D01*
X191000Y-115001D02*
Y-50001D01*
X193500Y-47501D02*
X231500D01*
X234000Y-115001D02*
Y-50001D01*
M02*
